<svg width="62" height="63" viewBox="0 0 62 63" fill="none" xmlns="http://www.w3.org/2000/svg">
<path fill-rule="evenodd" clip-rule="evenodd" d="M62 31.5L61.9992 34.6L61.9969 35.8839L61.993 36.8689L61.9876 37.6992L61.9806 38.4304L61.9721 39.0911L61.962 39.6985L61.9504 40.2634L61.9372 40.7937L61.9225 41.2949L61.9062 41.7712L61.8883 42.2258L61.8689 42.6615L61.848 43.0802L61.8255 43.4837L61.8014 43.8735L61.7758 44.2508L61.7486 44.6167L61.7198 44.9719L61.6895 45.3174L61.6576 45.6538L61.6241 45.9817L61.5891 46.3016L61.5525 46.614L61.5143 46.9193L61.4746 47.218L61.4333 47.5103L61.3904 47.7966L61.3459 48.0771L61.2998 48.3521L61.2521 48.6219L61.2029 48.8867L61.1521 49.1467L61.0996 49.402L61.0456 49.6528L60.9899 49.8993L60.9327 50.1417L60.8738 50.38L60.8134 50.6144L60.7513 50.845L60.6876 51.072L60.6223 51.2954L60.5553 51.5153L60.4867 51.7318L60.4165 51.9451L60.3446 52.1551L60.2711 52.362L60.1959 52.5658L60.1191 52.7667L60.0406 52.9646L59.9604 53.1596L59.8786 53.3518L59.7951 53.5413L59.7099 53.728L59.623 53.9121L59.5344 54.0936L59.4441 54.2725L59.3521 54.4489L59.2583 54.6228L59.1629 54.7942L59.0657 54.9633L58.9667 55.13L58.866 55.2943L58.7635 55.4563L58.6593 55.6161L58.5533 55.7735L58.4454 55.9288L58.3358 56.0819L58.2244 56.2328L58.1111 56.3816L57.996 56.5282L57.8791 56.6728L57.7603 56.8152L57.6396 56.9557L57.517 57.094L57.3926 57.2304L57.2662 57.3648L57.1379 57.4971L57.0076 57.6276L56.8754 57.756L56.7412 57.8826L56.605 58.0072L56.4668 58.1299L56.3265 58.2507L56.1842 58.3697L56.0398 58.4868L55.8933 58.602L55.7447 58.7154L55.594 58.827L55.4411 58.9368L55.286 59.0448L55.1287 59.1509L54.9691 59.2553L54.8073 59.3579L54.6431 59.4588L54.4766 59.5579L54.3078 59.6552L54.1365 59.7508L53.9628 59.8447L53.7866 59.9368L53.6079 60.0273L53.4267 60.116L53.2428 60.203L53.0562 60.2884L52.867 60.372L52.675 60.454L52.4802 60.5343L52.2825 60.6129L52.0819 60.6899L51.8784 60.7652L51.6717 60.8388L51.4619 60.9108L51.2489 60.9812L51.0327 61.0499L50.813 61.117L50.5899 61.1825L50.3633 61.2463L50.1329 61.3085L49.8988 61.3691L49.6608 61.4281L49.4188 61.4854L49.1726 61.5412L48.9221 61.5954L48.6672 61.6479L48.4076 61.6989L48.1432 61.7483L47.8738 61.7961L47.5992 61.8423L47.3191 61.8869L47.0333 61.9299L46.7415 61.9714L46.4433 62.0112L46.1385 62.0495L45.8267 62.0863L45.5074 62.1214L45.1802 62.155L44.8445 62.187L44.4998 62.2174L44.1453 62.2463L43.7804 62.2737L43.404 62.2994L43.0153 62.3236L42.6129 62.3462L42.1954 62.3673L41.7612 62.3868L41.3081 62.4048L40.8337 62.4212L40.3346 62.4361L39.8069 62.4494L39.2449 62.4612L38.6413 62.4714L37.9853 62.48L37.2605 62.4871L36.4397 62.4927L35.4703 62.4967L34.221 62.4991L31.8748 62.5L28.026 62.4993L26.7042 62.4971L25.7027 62.4934L24.8628 62.4881L24.125 62.4812L23.4593 62.4728L22.8482 62.4629L22.2802 62.4514L21.7474 62.4383L21.244 62.4237L20.7659 62.4075L20.3096 62.3898L19.8726 62.3705L19.4526 62.3497L19.0479 62.3273L18.657 62.3034L18.2787 62.2779L17.912 62.2508L17.556 62.2222L17.2097 62.192L16.8727 62.1602L16.5441 62.1269L16.2236 62.092L15.9106 62.0555L15.6047 62.0174L15.3056 61.9778L15.0128 61.9366L14.726 61.8938L14.445 61.8495L14.1695 61.8035L13.8993 61.756L13.6342 61.7069L13.3738 61.6562L13.1182 61.6039L12.867 61.5499L12.6201 61.4944L12.3774 61.4373L12.1388 61.3786L11.9041 61.3183L11.6732 61.2563L11.4459 61.1927L11.2222 61.1275L11.0021 61.0607L10.7853 60.9922L10.5718 60.9221L10.3615 60.8504L10.1543 60.777L9.95026 60.702L9.74919 60.6253L9.55106 60.5469L9.35581 60.4669L9.16337 60.3852L8.9737 60.3018L8.78674 60.2167L8.60244 60.13L8.42076 60.0415L8.24164 59.9514L8.06506 59.8595L7.89096 59.7659L7.71931 59.6705L7.55007 59.5735L7.38321 59.4747L7.2187 59.3741L7.05649 59.2718L6.89656 59.1677L6.73889 59.0618L6.58344 58.9541L6.43019 58.8446L6.2791 58.7333L6.13017 58.6202L5.98335 58.5053L5.83864 58.3885L5.69601 58.2698L5.55543 58.1493L5.41689 58.0269L5.28037 57.9025L5.14585 57.7763L5.01331 57.6482L4.88273 57.518L4.75411 57.386L4.62742 57.2519L4.50265 57.1159L4.37978 56.9778L4.2588 56.8377L4.13969 56.6956L4.02245 56.5514L3.90706 56.4051L3.79351 56.2567L3.68178 56.1061L3.57187 55.9534L3.46377 55.7984L3.35745 55.6413L3.25293 55.4819L3.15017 55.3202L3.04919 55.1563L2.94996 54.99L2.85247 54.8213L2.75673 54.6502L2.66271 54.4767L2.57042 54.3008L2.47985 54.1222L2.39098 53.9412L2.30381 53.7575L2.21834 53.5712L2.13456 53.3822L2.05246 53.1904L1.97203 52.9958L1.89327 52.7984L1.81618 52.598L1.74075 52.3947L1.66696 52.1883L1.59483 51.9788L1.52434 51.766L1.45549 51.55L1.38827 51.3307L1.32268 51.1078L1.25872 50.8814L1.19638 50.6514L1.13566 50.4176L1.07655 50.1799L1.01904 49.9382L0.96315 49.6924L0.908858 49.4422L0.856166 49.1876L0.80507 48.9284L0.755568 48.6644L0.707657 48.3955L0.661333 48.1213L0.616595 47.8416L0.573439 47.5563L0.531864 47.2649L0.491867 46.9673L0.453446 46.6631L0.416598 46.3518L0.381322 46.0331L0.347616 45.7066L0.315478 45.3716L0.284906 45.0276L0.255898 44.6739L0.228454 44.3099L0.202572 43.9344L0.17825 43.5467L0.155487 43.1454L0.134282 42.7292L0.114633 42.2964L0.0965408 41.8449L0.0800031 41.3723L0.0650196 40.8754L0.0515893 40.35L0.0397115 39.7911L0.0293858 39.1911L0.0206116 38.5398L0.0133884 37.8213L0.00771591 37.0096L0.00359379 36.0551L0.00102187 34.8377L0 32.7371L0.00052814 28.6576L0.00260632 27.2942L0.00623463 26.2754L0.0114133 25.4254L0.0181425 24.6808L0.0264226 24.0101L0.0362541 23.3951L0.0476374 22.824L0.060573 22.2886L0.0750618 21.7831L0.0911043 21.3031L0.108701 20.8452L0.127854 20.4067L0.148563 19.9854L0.17083 19.5795L0.194655 19.1876L0.220041 18.8084L0.246987 18.4408L0.275496 18.0839L0.30557 17.7369L0.337209 17.3992L0.370415 17.07L0.405191 16.7488L0.441538 16.4353L0.479458 16.1288L0.518953 15.8291L0.560025 15.5358L0.602677 15.2486L0.64691 14.9672L0.692729 14.6913L0.740134 14.4206L0.789129 14.1551L0.839717 13.8944L0.8919 13.6383L0.945682 13.3868L1.00107 13.1396L1.05806 12.8966L1.11665 12.6577L1.17686 12.4226L1.23869 12.1914L1.30213 11.9639L1.3672 11.7399L1.4339 11.5194L1.50223 11.3024L1.5722 11.0886L1.64381 10.8781L1.71706 10.6707L1.79197 10.4664L1.86854 10.2651L1.94676 10.0667L2.02666 9.87123L2.10822 9.67857L2.19147 9.48868L2.2764 9.30151L2.36303 9.117L2.45135 8.93511L2.54138 8.75579L2.63313 8.57901L2.72659 8.40471L2.82179 8.23287L2.91871 8.06344L3.01739 7.89639L3.11782 7.73169L3.22001 7.5693L3.32397 7.4092L3.42971 7.25134L3.53724 7.09572L3.64658 6.94229L3.75772 6.79103L3.87069 6.64193L3.98549 6.49495L4.10215 6.35007L4.22065 6.20727L4.34104 6.06653L4.4633 5.92782L4.58747 5.79114L4.71355 5.65646L4.84155 5.52377L4.9715 5.39304L5.10341 5.26426L5.2373 5.13741L5.37318 5.01249L5.51108 4.88947L5.651 4.76834L5.79298 4.64909L5.93703 4.5317L6.08317 4.41616L6.23143 4.30246L6.38183 4.19059L6.53439 4.08053L6.68914 3.97229L6.8461 3.86583L7.0053 3.76116L7.16678 3.65827L7.33056 3.55714L7.49667 3.45777L7.66514 3.36015L7.83602 3.26426L8.00934 3.17011L8.18512 3.07768L8.36343 2.98697L8.54429 2.89797L8.72775 2.81067L8.91386 2.72506L9.10266 2.64114L9.29421 2.55891L9.48856 2.47835L9.68577 2.39946L9.88589 2.32223L10.089 2.24667L10.2952 2.17276L10.5044 2.10049L10.7169 2.02987L10.9326 1.96089L11.1517 1.89354L11.3743 1.82782L11.6004 1.76373L11.8301 1.70126L12.0636 1.64041L12.301 1.58117L12.5424 1.52354L12.7879 1.46752L13.0377 1.4131L13.2919 1.36028L13.5507 1.30906L13.8143 1.25943L14.0829 1.21139L14.3567 1.16494L14.6359 1.12008L14.9208 1.07679L15.2116 1.03509L15.5087 0.99497L15.8124 0.956423L16.1231 0.91945L16.4412 0.884049L16.7671 0.850218L17.1014 0.817955L17.4446 0.787258L17.7975 0.758127L18.1607 0.730558L18.5352 0.704551L18.9219 0.680105L19.3221 0.657218L19.737 0.635889L20.1684 0.616116L20.6183 0.5979L21.0892 0.581239L21.5841 0.566131L22.1069 0.552577L22.663 0.540576L23.2594 0.530127L23.9061 0.521229L24.6185 0.513882L25.4214 0.508086L26.3617 0.503841L27.5496 0.501145L29.4848 0.5L33.7045 0.500405L35.1138 0.502359L36.1508 0.505864L37.0113 0.510919L37.7629 0.517525L38.4386 0.525682L39.0576 0.53539L39.6319 0.546649L40.1699 0.559461L40.6776 0.573827L41.1595 0.589745L41.619 0.607219L42.059 0.626247L42.4816 0.646833L42.8886 0.668975L43.2816 0.692676L43.6618 0.717937L44.0303 0.74476L44.388 0.773144L44.7357 0.803093L45.0742 0.834607L45.4041 0.867689L45.7258 0.90234L46.04 0.938561L46.347 0.976356L46.6472 1.01573L46.941 1.05667L47.2287 1.0992L47.5106 1.14331L47.7869 1.189L48.058 1.23628L48.3239 1.28515L48.585 1.33561L48.8414 1.38766L49.0933 1.44132L49.3408 1.49657L49.5842 1.55343L49.8234 1.6119L50.0588 1.67198L50.2903 1.73368L50.5181 1.797L50.7423 1.86194L50.9631 1.92851L51.1804 1.99671L51.3944 2.06654L51.6052 2.13802L51.8129 2.21115L52.0174 2.28592L52.219 2.36235L52.4176 2.44045L52.6133 2.52021L52.8061 2.60164L52.9963 2.68476L53.1836 2.76955L53.3684 2.85605L53.5505 2.94423L53.73 3.03413L53.907 3.12574L54.0815 3.21906L54.2535 3.31412L54.4231 3.41091L54.5903 3.50944L54.7552 3.60973L54.9178 3.71178L55.0781 3.8156L55.2361 3.9212L55.3919 4.02859L55.5455 4.13778L55.697 4.24878L55.8462 4.3616L55.9934 4.47626L56.1384 4.59277L56.2814 4.71113L56.4223 4.83136L56.5612 4.95347L56.698 5.07749L56.8328 5.20341L56.9657 5.33127L57.0966 5.46106L57.2255 5.59281L57.3525 5.72654L57.4776 5.86227L57.6008 6L57.722 6.13976L57.8414 6.28158L57.959 6.42546L58.0747 6.57144L58.1885 6.71953L58.3005 6.86975L58.4107 7.02214L58.5191 7.17671L58.6257 7.3335L58.7305 7.49252L58.8336 7.65382L58.9348 7.81741L59.0343 7.98333L59.1321 8.15162L59.2281 8.3223L59.3224 8.49542L59.415 8.67101L59.5058 8.84912L59.595 9.02977L59.6824 9.21302L59.7681 9.39892L59.8522 9.5875L59.9346 9.77883L60.0153 9.97296L60.0943 10.1699L60.1716 10.3698L60.2473 10.5727L60.3214 10.7786L60.3938 10.9876L60.4645 11.1998L60.5336 11.4153L60.6011 11.6341L60.667 11.8564L60.7312 12.0822L60.7938 12.3117L60.8548 12.5449L60.9141 12.7819L60.9719 13.023L61.028 13.2682L61.0826 13.5176L61.1355 13.7715L61.1869 14.0299L61.2366 14.2931L61.2848 14.5613L61.3314 14.8347L61.3764 15.1134L61.4198 15.3979L61.4616 15.6882L61.5019 15.9848L61.5405 16.288L61.5776 16.5981L61.6131 16.9156L61.6471 17.2408L61.6795 17.5744L61.7103 17.9169L61.7396 18.269L61.7673 18.6314L61.7934 19.0049L61.818 19.3906L61.841 19.7897L61.8624 20.2034L61.8823 20.6334L61.9007 21.0818L61.9174 21.5508L61.9327 22.0437L61.9464 22.5641L61.9585 23.1174L61.9691 23.7102L61.9781 24.3525L61.9855 25.0588L61.9915 25.8533L61.9958 26.7799L61.9986 27.9404L61.9999 29.7504L62 31.5Z" fill="#EAECFF"/>
<path fill-rule="evenodd" clip-rule="evenodd" d="M45.2369 18.3907V15.8344C45.2369 15.4815 44.9508 15.1954 44.5978 15.1954C44.2449 15.1954 43.9588 15.4815 43.9588 15.8344V16.8863C36.9934 10.652 26.5473 10.3501 19.2334 16.1717C11.9196 21.9932 9.8705 32.2407 14.3833 40.4272C14.5565 40.7306 14.9412 40.8387 15.247 40.67C15.5529 40.5012 15.6665 40.1182 15.5023 39.8099C11.2997 32.1902 13.1879 22.652 19.9766 17.2082C26.7652 11.7644 36.4859 11.9938 43.0103 17.7516H42.0415C41.6885 17.7516 41.4025 18.0377 41.4025 18.3906C41.4025 18.7435 41.6886 19.0296 42.0415 19.0296H44.5977C44.7672 19.0296 44.9297 18.9623 45.0496 18.8425C45.1695 18.7227 45.2369 18.5602 45.2369 18.3907Z" fill="#717FFF"/>
<path fill-rule="evenodd" clip-rule="evenodd" d="M47.1077 21.6652C46.799 21.8358 46.6869 22.2241 46.8572 22.533C51.0599 30.1526 49.1717 39.6909 42.383 45.1346C35.5943 50.5783 25.8736 50.3489 19.3492 44.5912H20.318C20.671 44.5912 20.9571 44.3051 20.9571 43.9521C20.9571 43.5992 20.6709 43.3131 20.318 43.3131H17.7617C17.4088 43.3131 17.1227 43.5992 17.1227 43.9521V46.5083C17.1227 46.8613 17.4088 47.1474 17.7617 47.1474C18.1146 47.1474 18.4007 46.8613 18.4007 46.5083V45.4564C25.3661 51.6907 35.8122 51.9927 43.126 46.1711C50.4399 40.3495 52.489 30.1019 47.9761 21.9156C47.8942 21.7672 47.7566 21.6574 47.5938 21.6104C47.431 21.5635 47.2561 21.5832 47.1077 21.6652Z" fill="#717FFF"/>
<path d="M20.9545 20.308C19.8957 20.308 19.0374 21.1664 19.0374 22.2251V40.1186C19.0374 41.1774 19.8957 42.0358 20.9545 42.0358H41.4042C42.463 42.0358 43.3214 41.1774 43.3214 40.1186V22.2251C43.3214 21.1664 42.463 20.308 41.4042 20.308H20.9545ZM42.0433 22.2251V40.1186C42.0433 40.4716 41.7571 40.7576 41.4042 40.7576H20.9545C20.6016 40.7576 20.3155 40.4715 20.3155 40.1186V22.2251C20.3155 21.8722 20.6016 21.5861 20.9545 21.5861H41.4042C41.7571 21.586 42.0433 21.8722 42.0433 22.2251Z" fill="#717FFF"/>
<path fill-rule="evenodd" clip-rule="evenodd" d="M40.1307 38.2017H31.823C31.47 38.2017 31.184 38.4877 31.184 38.8407C31.184 39.1936 31.47 39.4797 31.823 39.4797H40.1307C40.4836 39.4797 40.7697 39.1936 40.7697 38.8407C40.7697 38.4877 40.4836 38.2017 40.1307 38.2017Z" fill="#717FFF"/>
<path fill-rule="evenodd" clip-rule="evenodd" d="M40.1307 35.6451H31.823C31.47 35.6451 31.184 35.9313 31.184 36.2842C31.184 36.637 31.47 36.9232 31.823 36.9232H40.1307C40.4836 36.9232 40.7697 36.6371 40.7697 36.2842C40.7697 35.9312 40.4836 35.6451 40.1307 35.6451Z" fill="#717FFF"/>
<path fill-rule="evenodd" clip-rule="evenodd" d="M27.9816 35.6451C27.6286 35.6451 27.3425 35.9313 27.3425 36.2842V38.8404C27.3425 39.1933 27.6287 39.4794 27.9816 39.4794C28.3345 39.4794 28.6206 39.1933 28.6206 38.8404V36.2842C28.6206 35.9312 28.3344 35.6451 27.9816 35.6451Z" fill="#717FFF"/>
<path fill-rule="evenodd" clip-rule="evenodd" d="M25.4327 35.6451C25.0797 35.6451 24.7936 35.9313 24.7936 36.2842V38.8404C24.7936 39.1933 25.0798 39.4794 25.4327 39.4794C25.7856 39.4794 26.0717 39.1933 26.0717 38.8404V36.2842C26.0718 35.9312 25.7856 35.6451 25.4327 35.6451Z" fill="#717FFF"/>
<path fill-rule="evenodd" clip-rule="evenodd" d="M22.8717 35.6455C22.5187 35.6455 22.2327 35.9317 22.2327 36.2845V38.8407C22.2327 39.1937 22.5187 39.4798 22.8717 39.4798C23.2246 39.4798 23.5107 39.1937 23.5107 38.8407V36.2845C23.5107 35.9316 23.2246 35.6455 22.8717 35.6455Z" fill="#717FFF"/>
<path fill-rule="evenodd" clip-rule="evenodd" d="M25.4327 31.8112C25.7856 31.8112 26.0717 31.525 26.0717 31.1722V23.5035C26.0717 23.1506 25.7855 22.8645 25.4327 22.8645C25.0797 22.8645 24.7936 23.1506 24.7936 23.5035V31.1722C24.7936 31.525 25.0797 31.8112 25.4327 31.8112Z" fill="#717FFF"/>
<path fill-rule="evenodd" clip-rule="evenodd" d="M22.8718 31.8114C23.2247 31.8114 23.5108 31.5253 23.5108 31.1724V23.5038C23.5108 23.1508 23.2246 22.8647 22.8718 22.8647C22.5189 22.8647 22.2327 23.1508 22.2327 23.5038V31.1724C22.2327 31.5253 22.5188 31.8114 22.8718 31.8114Z" fill="#717FFF"/>
<path fill-rule="evenodd" clip-rule="evenodd" d="M23.5107 33.0891H22.8717C22.5187 33.0891 22.2327 33.3753 22.2327 33.7281C22.2327 34.0811 22.5187 34.3672 22.8717 34.3672H23.5107C23.8637 34.3672 24.1498 34.081 24.1498 33.7281C24.1498 33.3753 23.8637 33.0891 23.5107 33.0891Z" fill="#717FFF"/>
<path fill-rule="evenodd" clip-rule="evenodd" d="M26.7059 33.0891H26.0669C25.7139 33.0891 25.4279 33.3753 25.4279 33.7281C25.4279 34.0811 25.714 34.3672 26.0669 34.3672H26.7059C27.0589 34.3672 27.3449 34.081 27.3449 33.7281C27.3449 33.3753 27.0589 33.0891 26.7059 33.0891Z" fill="#717FFF"/>
<path fill-rule="evenodd" clip-rule="evenodd" d="M29.901 33.0891H29.262C28.9091 33.0891 28.623 33.3753 28.623 33.7281C28.623 34.0811 28.9091 34.3672 29.262 34.3672H29.901C30.254 34.3672 30.5401 34.081 30.5401 33.7281C30.5401 33.3753 30.2539 33.0891 29.901 33.0891Z" fill="#717FFF"/>
<path d="M29.8998 26.6982C30.9587 26.6982 31.817 25.8398 31.817 24.7811C31.817 23.7223 30.9586 22.8639 29.8998 22.8639C28.841 22.8639 27.9827 23.7223 27.9827 24.7811C27.9827 25.8398 28.841 26.6982 29.8998 26.6982ZM29.8998 24.142C30.2528 24.142 30.5389 24.4281 30.5389 24.7811C30.5389 25.134 30.2527 25.4201 29.8998 25.4201C29.5469 25.4201 29.2608 25.1339 29.2608 24.7811C29.2608 24.4282 29.5469 24.142 29.8998 24.142Z" fill="#717FFF"/>
<path d="M29.8998 31.8108C30.9587 31.8108 31.817 30.9524 31.817 29.8936C31.817 28.8347 30.9586 27.9764 29.8998 27.9764C28.841 27.9764 27.9827 28.8348 27.9827 29.8936C27.9827 30.9524 28.841 31.8108 29.8998 31.8108ZM29.8998 29.2545C30.2528 29.2545 30.5389 29.5406 30.5389 29.8935C30.5389 30.2465 30.2527 30.5326 29.8998 30.5326C29.5469 30.5326 29.2608 30.2464 29.2608 29.8935C29.2607 29.5406 29.5469 29.2545 29.8998 29.2545Z" fill="#717FFF"/>
<path d="M39.4831 22.8645H34.3706C33.6647 22.8645 33.0925 23.4367 33.0925 24.1426V29.2551C33.0925 29.961 33.6647 30.5332 34.3706 30.5332H39.4831C40.189 30.5332 40.7612 29.961 40.7612 29.2551V24.1426C40.7611 23.4367 40.1889 22.8645 39.4831 22.8645ZM34.3706 29.255V24.1426H39.4831V29.255H34.3706Z" fill="#717FFF"/>
<path fill-rule="evenodd" clip-rule="evenodd" d="M35.0108 33.7284V32.4503C35.0108 32.0974 34.7247 31.8113 34.3718 31.8113C34.0188 31.8113 33.7327 32.0974 33.7327 32.4503V33.7284C33.7327 34.0814 34.0188 34.3675 34.3718 34.3675C34.7247 34.3675 35.0108 34.0813 35.0108 33.7284Z" fill="#717FFF"/>
<path fill-rule="evenodd" clip-rule="evenodd" d="M37.5718 33.7284V32.4503C37.5718 32.0974 37.2856 31.8113 36.9327 31.8113C36.5799 31.8113 36.2937 32.0974 36.2937 32.4503V33.7284C36.2937 34.0814 36.5798 34.3675 36.9327 34.3675C37.2857 34.3675 37.5718 34.0813 37.5718 33.7284Z" fill="#717FFF"/>
<path fill-rule="evenodd" clip-rule="evenodd" d="M40.1206 33.7284V32.4503C40.1206 32.0974 39.8345 31.8113 39.4816 31.8113C39.1287 31.8113 38.8426 32.0974 38.8426 32.4503V33.7284C38.8426 34.0814 39.1287 34.3675 39.4816 34.3675C39.8345 34.3675 40.1206 34.0813 40.1206 33.7284Z" fill="#717FFF"/>
</svg>
