<svg width="62" height="63" viewBox="0 0 62 63" fill="none" xmlns="http://www.w3.org/2000/svg">
<path fill-rule="evenodd" clip-rule="evenodd" d="M62 31.5L61.9992 34.6L61.9969 35.8839L61.993 36.8689L61.9876 37.6992L61.9806 38.4304L61.9721 39.0911L61.962 39.6985L61.9504 40.2634L61.9372 40.7937L61.9225 41.2949L61.9062 41.7712L61.8883 42.2258L61.8689 42.6615L61.848 43.0802L61.8255 43.4837L61.8014 43.8735L61.7758 44.2508L61.7486 44.6167L61.7198 44.9719L61.6895 45.3174L61.6576 45.6538L61.6241 45.9817L61.5891 46.3016L61.5525 46.614L61.5143 46.9193L61.4746 47.218L61.4333 47.5103L61.3904 47.7966L61.3459 48.0771L61.2998 48.3521L61.2521 48.6219L61.2029 48.8867L61.1521 49.1467L61.0996 49.402L61.0456 49.6528L60.9899 49.8993L60.9327 50.1417L60.8738 50.38L60.8134 50.6144L60.7513 50.845L60.6876 51.072L60.6223 51.2954L60.5553 51.5153L60.4867 51.7318L60.4165 51.9451L60.3446 52.1551L60.2711 52.362L60.1959 52.5658L60.1191 52.7667L60.0406 52.9646L59.9604 53.1596L59.8786 53.3518L59.7951 53.5413L59.7099 53.728L59.623 53.9121L59.5344 54.0936L59.4441 54.2725L59.3521 54.4489L59.2583 54.6228L59.1629 54.7942L59.0657 54.9633L58.9667 55.13L58.866 55.2943L58.7635 55.4563L58.6593 55.6161L58.5533 55.7735L58.4454 55.9288L58.3358 56.0819L58.2244 56.2328L58.1111 56.3816L57.996 56.5282L57.8791 56.6728L57.7603 56.8152L57.6396 56.9557L57.517 57.094L57.3926 57.2304L57.2662 57.3648L57.1379 57.4971L57.0076 57.6276L56.8754 57.756L56.7412 57.8826L56.605 58.0072L56.4668 58.1299L56.3265 58.2507L56.1842 58.3697L56.0398 58.4868L55.8933 58.602L55.7447 58.7154L55.594 58.827L55.4411 58.9368L55.286 59.0448L55.1287 59.1509L54.9691 59.2553L54.8073 59.3579L54.6431 59.4588L54.4766 59.5579L54.3078 59.6552L54.1365 59.7508L53.9628 59.8447L53.7866 59.9368L53.6079 60.0273L53.4267 60.116L53.2428 60.203L53.0562 60.2884L52.867 60.372L52.675 60.454L52.4802 60.5343L52.2825 60.6129L52.0819 60.6899L51.8784 60.7652L51.6717 60.8388L51.4619 60.9108L51.2489 60.9812L51.0327 61.0499L50.813 61.117L50.5899 61.1825L50.3633 61.2463L50.1329 61.3085L49.8988 61.3691L49.6608 61.4281L49.4188 61.4854L49.1726 61.5412L48.9221 61.5954L48.6672 61.6479L48.4076 61.6989L48.1432 61.7483L47.8738 61.7961L47.5992 61.8423L47.3191 61.8869L47.0333 61.9299L46.7415 61.9714L46.4433 62.0112L46.1385 62.0495L45.8267 62.0863L45.5074 62.1214L45.1802 62.155L44.8445 62.187L44.4998 62.2174L44.1453 62.2463L43.7804 62.2737L43.404 62.2994L43.0153 62.3236L42.6129 62.3462L42.1954 62.3673L41.7612 62.3868L41.3081 62.4048L40.8337 62.4212L40.3346 62.4361L39.8069 62.4494L39.2449 62.4612L38.6413 62.4714L37.9853 62.48L37.2605 62.4871L36.4397 62.4927L35.4703 62.4967L34.221 62.4991L31.8748 62.5L28.026 62.4993L26.7042 62.4971L25.7027 62.4934L24.8628 62.4881L24.125 62.4812L23.4593 62.4728L22.8482 62.4629L22.2802 62.4514L21.7474 62.4383L21.244 62.4237L20.7659 62.4075L20.3096 62.3898L19.8726 62.3705L19.4526 62.3497L19.0479 62.3273L18.657 62.3034L18.2787 62.2779L17.912 62.2508L17.556 62.2222L17.2097 62.192L16.8727 62.1602L16.5441 62.1269L16.2236 62.092L15.9106 62.0555L15.6047 62.0174L15.3056 61.9778L15.0128 61.9366L14.726 61.8938L14.445 61.8495L14.1695 61.8035L13.8993 61.756L13.6342 61.7069L13.3738 61.6562L13.1182 61.6039L12.867 61.5499L12.6201 61.4944L12.3774 61.4373L12.1388 61.3786L11.9041 61.3183L11.6732 61.2563L11.4459 61.1927L11.2222 61.1275L11.0021 61.0607L10.7853 60.9922L10.5718 60.9221L10.3615 60.8504L10.1543 60.777L9.95026 60.702L9.74919 60.6253L9.55106 60.5469L9.35581 60.4669L9.16337 60.3852L8.9737 60.3018L8.78674 60.2167L8.60244 60.13L8.42076 60.0415L8.24164 59.9514L8.06506 59.8595L7.89096 59.7659L7.71931 59.6705L7.55007 59.5735L7.38321 59.4747L7.2187 59.3741L7.05649 59.2718L6.89656 59.1677L6.73889 59.0618L6.58344 58.9541L6.43019 58.8446L6.2791 58.7333L6.13017 58.6202L5.98335 58.5053L5.83864 58.3885L5.69601 58.2698L5.55543 58.1493L5.41689 58.0269L5.28037 57.9025L5.14585 57.7763L5.01331 57.6482L4.88273 57.518L4.75411 57.386L4.62742 57.2519L4.50265 57.1159L4.37978 56.9778L4.2588 56.8377L4.13969 56.6956L4.02245 56.5514L3.90706 56.4051L3.79351 56.2567L3.68178 56.1061L3.57187 55.9534L3.46377 55.7984L3.35745 55.6413L3.25293 55.4819L3.15017 55.3202L3.04919 55.1563L2.94996 54.99L2.85247 54.8213L2.75673 54.6502L2.66271 54.4767L2.57042 54.3008L2.47985 54.1222L2.39098 53.9412L2.30381 53.7575L2.21834 53.5712L2.13456 53.3822L2.05246 53.1904L1.97203 52.9958L1.89327 52.7984L1.81618 52.598L1.74075 52.3947L1.66696 52.1883L1.59483 51.9788L1.52434 51.766L1.45549 51.55L1.38827 51.3307L1.32268 51.1078L1.25872 50.8814L1.19638 50.6514L1.13566 50.4176L1.07655 50.1799L1.01904 49.9382L0.96315 49.6924L0.908858 49.4422L0.856166 49.1876L0.80507 48.9284L0.755568 48.6644L0.707657 48.3955L0.661333 48.1213L0.616595 47.8416L0.573439 47.5563L0.531864 47.2649L0.491867 46.9673L0.453446 46.6631L0.416598 46.3518L0.381322 46.0331L0.347616 45.7066L0.315478 45.3716L0.284906 45.0276L0.255898 44.6739L0.228454 44.3099L0.202572 43.9344L0.17825 43.5467L0.155487 43.1454L0.134282 42.7292L0.114633 42.2964L0.0965408 41.8449L0.0800031 41.3723L0.0650196 40.8754L0.0515893 40.35L0.0397115 39.7911L0.0293858 39.1911L0.0206116 38.5398L0.0133884 37.8213L0.00771591 37.0096L0.00359379 36.0551L0.00102187 34.8377L0 32.7371L0.00052814 28.6576L0.00260632 27.2942L0.00623463 26.2754L0.0114133 25.4254L0.0181425 24.6808L0.0264226 24.0101L0.0362541 23.3951L0.0476374 22.824L0.060573 22.2886L0.0750618 21.7831L0.0911043 21.3031L0.108701 20.8452L0.127854 20.4067L0.148563 19.9854L0.17083 19.5795L0.194655 19.1876L0.220041 18.8084L0.246987 18.4408L0.275496 18.0839L0.30557 17.7369L0.337209 17.3992L0.370415 17.07L0.405191 16.7488L0.441538 16.4353L0.479458 16.1288L0.518953 15.8291L0.560025 15.5358L0.602677 15.2486L0.64691 14.9672L0.692729 14.6913L0.740134 14.4206L0.789129 14.1551L0.839717 13.8944L0.8919 13.6383L0.945682 13.3868L1.00107 13.1396L1.05806 12.8966L1.11665 12.6577L1.17686 12.4226L1.23869 12.1914L1.30213 11.9639L1.3672 11.7399L1.4339 11.5194L1.50223 11.3024L1.5722 11.0886L1.64381 10.8781L1.71706 10.6707L1.79197 10.4664L1.86854 10.2651L1.94676 10.0667L2.02666 9.87123L2.10822 9.67857L2.19147 9.48868L2.2764 9.30151L2.36303 9.117L2.45135 8.93511L2.54138 8.75579L2.63313 8.57901L2.72659 8.40471L2.82179 8.23287L2.91871 8.06344L3.01739 7.89639L3.11782 7.73169L3.22001 7.5693L3.32397 7.4092L3.42971 7.25134L3.53724 7.09572L3.64658 6.94229L3.75772 6.79103L3.87069 6.64193L3.98549 6.49495L4.10215 6.35007L4.22065 6.20727L4.34104 6.06653L4.4633 5.92782L4.58747 5.79114L4.71355 5.65646L4.84155 5.52377L4.9715 5.39304L5.10341 5.26426L5.2373 5.13741L5.37318 5.01249L5.51108 4.88947L5.651 4.76834L5.79298 4.64909L5.93703 4.5317L6.08317 4.41616L6.23143 4.30246L6.38183 4.19059L6.53439 4.08053L6.68914 3.97229L6.8461 3.86583L7.0053 3.76116L7.16678 3.65827L7.33056 3.55714L7.49667 3.45777L7.66514 3.36015L7.83602 3.26426L8.00934 3.17011L8.18512 3.07768L8.36343 2.98697L8.54429 2.89797L8.72775 2.81067L8.91386 2.72506L9.10266 2.64114L9.29421 2.55891L9.48856 2.47835L9.68577 2.39946L9.88589 2.32223L10.089 2.24667L10.2952 2.17276L10.5044 2.10049L10.7169 2.02987L10.9326 1.96089L11.1517 1.89354L11.3743 1.82782L11.6004 1.76373L11.8301 1.70126L12.0636 1.64041L12.301 1.58117L12.5424 1.52354L12.7879 1.46752L13.0377 1.4131L13.2919 1.36028L13.5507 1.30906L13.8143 1.25943L14.0829 1.21139L14.3567 1.16494L14.6359 1.12008L14.9208 1.07679L15.2116 1.03509L15.5087 0.99497L15.8124 0.956423L16.1231 0.91945L16.4412 0.884049L16.7671 0.850218L17.1014 0.817955L17.4446 0.787258L17.7975 0.758127L18.1607 0.730558L18.5352 0.704551L18.9219 0.680105L19.3221 0.657218L19.737 0.635889L20.1684 0.616116L20.6183 0.5979L21.0892 0.581239L21.5841 0.566131L22.1069 0.552577L22.663 0.540576L23.2594 0.530127L23.9061 0.521229L24.6185 0.513882L25.4214 0.508086L26.3617 0.503841L27.5496 0.501145L29.4848 0.5L33.7045 0.500405L35.1138 0.502359L36.1508 0.505864L37.0113 0.510919L37.7629 0.517525L38.4386 0.525682L39.0576 0.53539L39.6319 0.546649L40.1699 0.559461L40.6776 0.573827L41.1595 0.589745L41.619 0.607219L42.059 0.626247L42.4816 0.646833L42.8886 0.668975L43.2816 0.692676L43.6618 0.717937L44.0303 0.74476L44.388 0.773144L44.7357 0.803093L45.0742 0.834607L45.4041 0.867689L45.7258 0.90234L46.04 0.938561L46.347 0.976356L46.6472 1.01573L46.941 1.05667L47.2287 1.0992L47.5106 1.14331L47.7869 1.189L48.058 1.23628L48.3239 1.28515L48.585 1.33561L48.8414 1.38766L49.0933 1.44132L49.3408 1.49657L49.5842 1.55343L49.8234 1.6119L50.0588 1.67198L50.2903 1.73368L50.5181 1.797L50.7423 1.86194L50.9631 1.92851L51.1804 1.99671L51.3944 2.06654L51.6052 2.13802L51.8129 2.21115L52.0174 2.28592L52.219 2.36235L52.4176 2.44045L52.6133 2.52021L52.8061 2.60164L52.9963 2.68476L53.1836 2.76955L53.3684 2.85605L53.5505 2.94423L53.73 3.03413L53.907 3.12574L54.0815 3.21906L54.2535 3.31412L54.4231 3.41091L54.5903 3.50944L54.7552 3.60973L54.9178 3.71178L55.0781 3.8156L55.2361 3.9212L55.3919 4.02859L55.5455 4.13778L55.697 4.24878L55.8462 4.3616L55.9934 4.47626L56.1384 4.59277L56.2814 4.71113L56.4223 4.83136L56.5612 4.95347L56.698 5.07749L56.8328 5.20341L56.9657 5.33127L57.0966 5.46106L57.2255 5.59281L57.3525 5.72654L57.4776 5.86227L57.6008 6L57.722 6.13976L57.8414 6.28158L57.959 6.42546L58.0747 6.57144L58.1885 6.71953L58.3005 6.86975L58.4107 7.02214L58.5191 7.17671L58.6257 7.3335L58.7305 7.49252L58.8336 7.65382L58.9348 7.81741L59.0343 7.98333L59.1321 8.15162L59.2281 8.3223L59.3224 8.49542L59.415 8.67101L59.5058 8.84912L59.595 9.02977L59.6824 9.21302L59.7681 9.39892L59.8522 9.5875L59.9346 9.77883L60.0153 9.97296L60.0943 10.1699L60.1716 10.3698L60.2473 10.5727L60.3214 10.7786L60.3938 10.9876L60.4645 11.1998L60.5336 11.4153L60.6011 11.6341L60.667 11.8564L60.7312 12.0822L60.7938 12.3117L60.8548 12.5449L60.9141 12.7819L60.9719 13.023L61.028 13.2682L61.0826 13.5176L61.1355 13.7715L61.1869 14.0299L61.2366 14.2931L61.2848 14.5613L61.3314 14.8347L61.3764 15.1134L61.4198 15.3979L61.4616 15.6882L61.5019 15.9848L61.5405 16.288L61.5776 16.5981L61.6131 16.9156L61.6471 17.2408L61.6795 17.5744L61.7103 17.9169L61.7396 18.269L61.7673 18.6314L61.7934 19.0049L61.818 19.3906L61.841 19.7897L61.8624 20.2034L61.8823 20.6334L61.9007 21.0818L61.9174 21.5508L61.9327 22.0437L61.9464 22.5641L61.9585 23.1174L61.9691 23.7102L61.9781 24.3525L61.9855 25.0588L61.9915 25.8533L61.9958 26.7799L61.9986 27.9404L61.9999 29.7504L62 31.5Z" fill="#EAECFF"/>
<path d="M55.4967 44.2476C54.5369 41.151 51.6719 39.0409 48.43 39.0429C45.9725 39.0437 43.6759 40.2648 42.3013 42.3019L39.5233 40.8467C40.6637 38.0978 40.3706 34.9627 38.7402 32.4729L41.5301 30.2676C44.3144 33.1065 48.8318 33.2746 51.8194 30.6505C54.807 28.0265 55.223 23.5251 52.7671 20.3978C50.3112 17.2706 45.8395 16.6077 42.582 18.8882C39.3245 21.1686 38.417 25.5971 40.515 28.975L37.7193 31.1849C36.2125 29.5895 34.1752 28.5987 31.9899 28.3984V19.2662C35.8916 18.83 38.773 15.4221 38.5546 11.5023C38.3362 7.58246 35.0937 4.51562 31.1678 4.51562C27.2418 4.51562 23.9996 7.58226 23.7811 11.5021C23.5626 15.422 26.4442 18.8298 30.3458 19.266V28.3982C28.1605 28.5985 26.1232 29.5893 24.6164 31.1847L21.8208 28.9748C23.8771 25.6504 22.979 21.2988 19.7748 19.06C16.5705 16.8212 12.1755 17.4748 9.76124 20.5489C7.34695 23.6231 7.75387 28.0478 10.6884 30.6301C13.6229 33.2123 18.0634 33.0532 20.8056 30.2675L23.5954 32.4727C21.965 34.9625 21.6718 38.0976 22.8123 40.8465L20.0343 42.3017C17.813 38.979 13.382 37.9722 9.94281 40.0085C6.50373 42.045 5.25604 46.4143 7.10133 49.9596C8.94662 53.5049 13.2412 54.9896 16.8821 53.341C20.523 51.6923 22.2403 47.4855 20.7933 43.7598L23.5804 42.3C25.2407 44.881 28.0991 46.4409 31.168 46.4409C34.2367 46.4409 37.0952 44.8809 38.7555 42.3L41.5425 43.7598C40.3689 46.7818 41.3009 50.2159 43.8411 52.2299C46.3815 54.244 49.9376 54.3683 52.6123 52.5364C55.287 50.7048 56.4564 47.3441 55.4967 44.2476ZM49.252 30.2596C47.6938 31.0105 45.8783 31.0105 44.3199 30.2596V29.5239C44.4664 28.3018 45.5605 27.4193 46.7859 27.5347C47.4406 27.5228 48.0772 27.75 48.5765 28.1738C48.9932 28.4994 49.2413 28.9952 49.252 29.524V30.2596ZM45.142 24.2466C45.142 23.3386 45.8781 22.6025 46.786 22.6025C47.694 22.6025 48.4301 23.3386 48.4301 24.2466C48.4301 25.1545 47.694 25.8906 46.786 25.8906C45.8785 25.8896 45.143 25.1541 45.142 24.2466ZM41.4692 22.8661C42.3595 20.7154 44.4583 19.3134 46.786 19.3146C49.1138 19.3134 51.2128 20.7155 52.1029 22.8664C52.9931 25.0172 52.4991 27.4925 50.8513 29.1368C50.7449 28.2728 50.3137 27.4816 49.6454 26.9238C49.4827 26.7857 49.3091 26.6611 49.1264 26.5508C50.398 25.2628 50.3897 23.1895 49.108 21.9116C47.8262 20.6338 45.7528 20.632 44.4688 21.9075C43.1848 23.183 43.1729 25.2564 44.4422 26.5466C43.5027 27.1015 42.8684 28.0554 42.7202 29.1364C41.0728 27.492 40.5789 25.0167 41.4692 22.8661ZM18.0156 30.2596C16.4573 31.0105 14.6418 31.0105 13.0835 30.2596V29.5239C13.23 28.3018 14.324 27.4193 15.5495 27.5347C16.2042 27.5228 16.8408 27.75 17.34 28.1738C17.7567 28.4994 18.0048 28.9952 18.0156 29.524V30.2596ZM13.9056 24.2466C13.9056 23.3386 14.6416 22.6025 15.5496 22.6025C16.4575 22.6025 17.1936 23.3386 17.1936 24.2466C17.1936 25.1545 16.4575 25.8906 15.5496 25.8906C14.642 25.8896 13.9066 25.1541 13.9056 24.2466ZM19.6149 29.1368C19.5084 28.2728 19.0773 27.4816 18.409 26.9238C18.2462 26.7857 18.0727 26.6611 17.8899 26.5508C19.1615 25.2628 19.1533 23.1895 17.8715 21.9117C16.5898 20.6339 14.5164 20.6321 13.2323 21.9076C11.9483 23.1831 11.9364 25.2565 13.2057 26.5467C12.2662 27.1016 11.632 28.0555 11.4837 29.1365C10.4021 28.0592 9.79444 26.5952 9.79542 25.0687C9.79356 22.4633 11.5427 20.1818 14.0592 19.5069C16.5757 18.832 19.2316 19.9324 20.5337 22.1893C21.8356 24.446 21.4588 27.296 19.6149 29.1368ZM16.3716 51.6318C14.8133 52.3827 12.9978 52.3827 11.4395 51.6318V50.8961C11.586 49.674 12.68 48.7915 13.9055 48.907C14.5601 48.895 15.1967 49.1222 15.696 49.546C16.1127 49.8716 16.3608 50.3675 16.3716 50.8962V51.6318ZM12.2615 45.6189C12.2615 44.711 12.9976 43.9749 13.9056 43.9749C14.8135 43.9749 15.5496 44.711 15.5496 45.6189C15.5496 46.5269 14.8135 47.2629 13.9056 47.2629C12.998 47.2619 12.2626 46.5265 12.2615 45.6189ZM17.9708 50.5091C17.8644 49.6451 17.4333 48.8539 16.765 48.2962C16.6022 48.1581 16.4287 48.0334 16.2459 47.9231C17.5175 46.6352 17.5093 44.5618 16.2275 43.284C14.9457 42.0062 12.8723 42.0044 11.5883 43.2799C10.3043 44.5554 10.2923 46.6288 11.5617 47.919C10.6222 48.4739 9.98796 49.4278 9.83969 50.5088C8.23757 48.9096 7.72253 46.5194 8.52393 44.4024C9.32523 42.2853 11.2938 40.8352 13.5533 40.6976C15.8127 40.56 17.9427 41.7606 18.9949 43.7648L18.9973 43.7727L19.0019 43.7792C20.1716 46.0058 19.7534 48.7347 17.9708 50.5091ZM27.1021 15.9842C26.0205 14.907 25.4128 13.443 25.4137 11.9165C25.4118 9.31101 27.1609 7.02952 29.6775 6.35465C32.194 5.67978 34.8499 6.78017 36.152 9.03699C37.4539 11.2938 37.0771 14.1438 35.2331 15.9846C35.1267 15.1206 34.6956 14.3294 34.0273 13.7717C33.8645 13.6336 33.691 13.5089 33.5082 13.3986C34.7798 12.1107 34.7716 10.0373 33.4898 8.75944C32.208 7.48158 30.1346 7.47982 28.8506 8.75533C27.5666 10.0308 27.5547 12.1042 28.824 13.3944C27.8845 13.9493 27.2503 14.9032 27.1021 15.9842ZM32.8118 11.0944C32.8118 12.0024 32.0757 12.7384 31.1678 12.7384C30.2602 12.7374 29.5248 12.002 29.5237 11.0944C29.5237 10.1864 30.2598 9.45037 31.1678 9.45037C32.0757 9.45037 32.8118 10.1864 32.8118 11.0944ZM28.7018 17.1074V16.3717C28.8483 15.1496 29.9423 14.2671 31.1678 14.3826C31.8225 14.3706 32.459 14.5978 32.9583 15.0216C33.375 15.3472 33.6231 15.8431 33.6339 16.3718V17.1075C32.0755 17.8583 30.26 17.8583 28.7018 17.1074ZM31.1678 44.7969C27.0819 44.7969 23.7697 41.4847 23.7697 37.3988C23.7697 33.313 27.0819 30.0007 31.1678 30.0007C35.2536 30.0007 38.5659 33.313 38.5659 37.3988C38.5613 41.4827 35.2517 44.7923 31.1678 44.7969ZM50.8961 51.6318C49.3378 52.3827 47.5223 52.3827 45.964 51.6318V50.8961C46.1105 49.674 47.2045 48.7915 48.43 48.907C49.0847 48.895 49.7212 49.1222 50.2205 49.546C50.6372 49.8716 50.8853 50.3675 50.8961 50.8962V51.6318ZM46.786 45.6189C46.786 44.711 47.5221 43.9749 48.4301 43.9749C49.338 43.9749 50.0741 44.711 50.0741 45.6189C50.0741 46.5269 49.338 47.2629 48.4301 47.2629C47.5225 47.2619 46.787 46.5265 46.786 45.6189ZM52.4953 50.5091C52.3889 49.6451 51.9578 48.8539 51.2895 48.2962C51.1267 48.1581 50.9532 48.0334 50.7704 47.9231C52.042 46.6352 52.0338 44.5618 50.752 43.2839C49.4702 42.0061 47.3969 42.0043 46.1128 43.2798C44.8288 44.5553 44.817 46.6287 46.0862 47.9189C45.1467 48.4738 44.5125 49.4277 44.3642 50.5087C42.582 48.7343 42.164 46.0056 43.3335 43.7791L43.3381 43.7726L43.3405 43.7647C44.3927 41.7604 46.5229 40.5597 48.7824 40.6973C51.042 40.8349 53.0107 42.2852 53.8119 44.4025C54.6131 46.5197 54.0978 48.91 52.4953 50.5091Z" fill="#717FFF"/>
<path d="M31.1709 31.6445C29.3558 31.6465 27.8848 33.1175 27.8828 34.9326C27.8828 35.3866 28.2509 35.7546 28.7048 35.7546C29.1587 35.7546 29.5267 35.3865 29.5267 34.9326C29.5267 34.0246 30.2628 33.2886 31.1708 33.2886C32.0787 33.2886 32.8148 34.0246 32.8148 34.9326C32.8148 35.8406 32.0787 36.5766 31.1708 36.5766C30.9528 36.5765 30.7436 36.6632 30.5894 36.8174C30.4353 36.9715 30.3487 37.1806 30.3487 37.3987V39.0427C30.3487 39.4968 30.7168 39.8647 31.1707 39.8647C31.6247 39.8647 31.9927 39.4967 31.9927 39.0427V38.1164C33.5958 37.7025 34.6412 36.161 34.4325 34.5184C34.2242 32.8758 32.8267 31.6445 31.1709 31.6445Z" fill="#717FFF"/>
<path d="M31.7493 41.7467C31.7101 41.7115 31.669 41.6786 31.6261 41.648C31.5804 41.6168 31.5305 41.5919 31.478 41.5742C31.4313 41.5505 31.3815 41.5337 31.3299 41.5244C31.1697 41.4909 31.003 41.5084 30.8531 41.5742C30.6469 41.6493 30.4844 41.8119 30.4093 42.018C30.2786 42.324 30.347 42.6786 30.5821 42.9139C30.6619 42.9865 30.7536 43.0449 30.853 43.0866C31.0521 43.1743 31.2788 43.1743 31.4779 43.0866C31.5775 43.0449 31.6693 42.9865 31.7493 42.9139C31.9038 42.7592 31.9897 42.5489 31.9877 42.3303C31.9905 42.2225 31.9679 42.1156 31.9219 42.018C31.88 41.9185 31.8218 41.8268 31.7493 41.7467Z" fill="#717FFF"/>
</svg>
