<svg width="62" height="63" viewBox="0 0 62 63" fill="none" xmlns="http://www.w3.org/2000/svg">
<path fill-rule="evenodd" clip-rule="evenodd" d="M62 31.5L61.9992 34.6L61.9969 35.8839L61.993 36.8689L61.9876 37.6992L61.9806 38.4304L61.9721 39.0911L61.962 39.6985L61.9504 40.2634L61.9372 40.7937L61.9225 41.2949L61.9062 41.7712L61.8883 42.2258L61.8689 42.6615L61.848 43.0802L61.8255 43.4837L61.8014 43.8735L61.7758 44.2508L61.7486 44.6167L61.7198 44.9719L61.6895 45.3174L61.6576 45.6538L61.6241 45.9817L61.5891 46.3016L61.5525 46.614L61.5143 46.9193L61.4746 47.218L61.4333 47.5103L61.3904 47.7966L61.3459 48.0771L61.2998 48.3521L61.2521 48.6219L61.2029 48.8867L61.1521 49.1467L61.0996 49.402L61.0456 49.6528L60.9899 49.8993L60.9327 50.1417L60.8738 50.38L60.8134 50.6144L60.7513 50.845L60.6876 51.072L60.6223 51.2954L60.5553 51.5153L60.4867 51.7318L60.4165 51.9451L60.3446 52.1551L60.2711 52.362L60.1959 52.5658L60.1191 52.7667L60.0406 52.9646L59.9604 53.1596L59.8786 53.3518L59.7951 53.5413L59.7099 53.728L59.623 53.9121L59.5344 54.0936L59.4441 54.2725L59.3521 54.4489L59.2583 54.6228L59.1629 54.7942L59.0657 54.9633L58.9667 55.13L58.866 55.2943L58.7635 55.4563L58.6593 55.6161L58.5533 55.7735L58.4454 55.9288L58.3358 56.0819L58.2244 56.2328L58.1111 56.3816L57.996 56.5282L57.8791 56.6728L57.7603 56.8152L57.6396 56.9557L57.517 57.094L57.3926 57.2304L57.2662 57.3648L57.1379 57.4971L57.0076 57.6276L56.8754 57.756L56.7412 57.8826L56.605 58.0072L56.4668 58.1299L56.3265 58.2507L56.1842 58.3697L56.0398 58.4868L55.8933 58.602L55.7447 58.7154L55.594 58.827L55.4411 58.9368L55.286 59.0448L55.1287 59.1509L54.9691 59.2553L54.8073 59.3579L54.6431 59.4588L54.4766 59.5579L54.3078 59.6552L54.1365 59.7508L53.9628 59.8447L53.7866 59.9368L53.6079 60.0273L53.4267 60.116L53.2428 60.203L53.0562 60.2884L52.867 60.372L52.675 60.454L52.4802 60.5343L52.2825 60.6129L52.0819 60.6899L51.8784 60.7652L51.6717 60.8388L51.4619 60.9108L51.2489 60.9812L51.0327 61.0499L50.813 61.117L50.5899 61.1825L50.3633 61.2463L50.1329 61.3085L49.8988 61.3691L49.6608 61.4281L49.4188 61.4854L49.1726 61.5412L48.9221 61.5954L48.6672 61.6479L48.4076 61.6989L48.1432 61.7483L47.8738 61.7961L47.5992 61.8423L47.3191 61.8869L47.0333 61.9299L46.7415 61.9714L46.4433 62.0112L46.1385 62.0495L45.8267 62.0863L45.5074 62.1214L45.1802 62.155L44.8445 62.187L44.4998 62.2174L44.1453 62.2463L43.7804 62.2737L43.404 62.2994L43.0153 62.3236L42.6129 62.3462L42.1954 62.3673L41.7612 62.3868L41.3081 62.4048L40.8337 62.4212L40.3346 62.4361L39.8069 62.4494L39.2449 62.4612L38.6413 62.4714L37.9853 62.48L37.2605 62.4871L36.4397 62.4927L35.4703 62.4967L34.221 62.4991L31.8748 62.5L28.026 62.4993L26.7042 62.4971L25.7027 62.4934L24.8628 62.4881L24.125 62.4812L23.4593 62.4728L22.8482 62.4629L22.2802 62.4514L21.7474 62.4383L21.244 62.4237L20.7659 62.4075L20.3096 62.3898L19.8726 62.3705L19.4526 62.3497L19.0479 62.3273L18.657 62.3034L18.2787 62.2779L17.912 62.2508L17.556 62.2222L17.2097 62.192L16.8727 62.1602L16.5441 62.1269L16.2236 62.092L15.9106 62.0555L15.6047 62.0174L15.3056 61.9778L15.0128 61.9366L14.726 61.8938L14.445 61.8495L14.1695 61.8035L13.8993 61.756L13.6342 61.7069L13.3738 61.6562L13.1182 61.6039L12.867 61.5499L12.6201 61.4944L12.3774 61.4373L12.1388 61.3786L11.9041 61.3183L11.6732 61.2563L11.4459 61.1927L11.2222 61.1275L11.0021 61.0607L10.7853 60.9922L10.5718 60.9221L10.3615 60.8504L10.1543 60.777L9.95026 60.702L9.74919 60.6253L9.55106 60.5469L9.35581 60.4669L9.16337 60.3852L8.9737 60.3018L8.78674 60.2167L8.60244 60.13L8.42076 60.0415L8.24164 59.9514L8.06506 59.8595L7.89096 59.7659L7.71931 59.6705L7.55007 59.5735L7.38321 59.4747L7.2187 59.3741L7.05649 59.2718L6.89656 59.1677L6.73889 59.0618L6.58344 58.9541L6.43019 58.8446L6.2791 58.7333L6.13017 58.6202L5.98335 58.5053L5.83864 58.3885L5.69601 58.2698L5.55543 58.1493L5.41689 58.0269L5.28037 57.9025L5.14585 57.7763L5.01331 57.6482L4.88273 57.518L4.75411 57.386L4.62742 57.2519L4.50265 57.1159L4.37978 56.9778L4.2588 56.8377L4.13969 56.6956L4.02245 56.5514L3.90706 56.4051L3.79351 56.2567L3.68178 56.1061L3.57187 55.9534L3.46377 55.7984L3.35745 55.6413L3.25293 55.4819L3.15017 55.3202L3.04919 55.1563L2.94996 54.99L2.85247 54.8213L2.75673 54.6502L2.66271 54.4767L2.57042 54.3008L2.47985 54.1222L2.39098 53.9412L2.30381 53.7575L2.21834 53.5712L2.13456 53.3822L2.05246 53.1904L1.97203 52.9958L1.89327 52.7984L1.81618 52.598L1.74075 52.3947L1.66696 52.1883L1.59483 51.9788L1.52434 51.766L1.45549 51.55L1.38827 51.3307L1.32268 51.1078L1.25872 50.8814L1.19638 50.6514L1.13566 50.4176L1.07655 50.1799L1.01904 49.9382L0.96315 49.6924L0.908858 49.4422L0.856166 49.1876L0.80507 48.9284L0.755568 48.6644L0.707657 48.3955L0.661333 48.1213L0.616595 47.8416L0.573439 47.5563L0.531864 47.2649L0.491867 46.9673L0.453446 46.6631L0.416598 46.3518L0.381322 46.0331L0.347616 45.7066L0.315478 45.3716L0.284906 45.0276L0.255898 44.6739L0.228454 44.3099L0.202572 43.9344L0.17825 43.5467L0.155487 43.1454L0.134282 42.7292L0.114633 42.2964L0.0965408 41.8449L0.0800031 41.3723L0.0650196 40.8754L0.0515893 40.35L0.0397115 39.7911L0.0293858 39.1911L0.0206116 38.5398L0.0133884 37.8213L0.00771591 37.0096L0.00359379 36.0551L0.00102187 34.8377L0 32.7371L0.00052814 28.6576L0.00260632 27.2942L0.00623463 26.2754L0.0114133 25.4254L0.0181425 24.6808L0.0264226 24.0101L0.0362541 23.3951L0.0476374 22.824L0.060573 22.2886L0.0750618 21.7831L0.0911043 21.3031L0.108701 20.8452L0.127854 20.4067L0.148563 19.9854L0.17083 19.5795L0.194655 19.1876L0.220041 18.8084L0.246987 18.4408L0.275496 18.0839L0.30557 17.7369L0.337209 17.3992L0.370415 17.07L0.405191 16.7488L0.441538 16.4353L0.479458 16.1288L0.518953 15.8291L0.560025 15.5358L0.602677 15.2486L0.64691 14.9672L0.692729 14.6913L0.740134 14.4206L0.789129 14.1551L0.839717 13.8944L0.8919 13.6383L0.945682 13.3868L1.00107 13.1396L1.05806 12.8966L1.11665 12.6577L1.17686 12.4226L1.23869 12.1914L1.30213 11.9639L1.3672 11.7399L1.4339 11.5194L1.50223 11.3024L1.5722 11.0886L1.64381 10.8781L1.71706 10.6707L1.79197 10.4664L1.86854 10.2651L1.94676 10.0667L2.02666 9.87123L2.10822 9.67857L2.19147 9.48868L2.2764 9.30151L2.36303 9.117L2.45135 8.93511L2.54138 8.75579L2.63313 8.57901L2.72659 8.40471L2.82179 8.23287L2.91871 8.06344L3.01739 7.89639L3.11782 7.73169L3.22001 7.5693L3.32397 7.4092L3.42971 7.25134L3.53724 7.09572L3.64658 6.94229L3.75772 6.79103L3.87069 6.64193L3.98549 6.49495L4.10215 6.35007L4.22065 6.20727L4.34104 6.06653L4.4633 5.92782L4.58747 5.79114L4.71355 5.65646L4.84155 5.52377L4.9715 5.39304L5.10341 5.26426L5.2373 5.13741L5.37318 5.01249L5.51108 4.88947L5.651 4.76834L5.79298 4.64909L5.93703 4.5317L6.08317 4.41616L6.23143 4.30246L6.38183 4.19059L6.53439 4.08053L6.68914 3.97229L6.8461 3.86583L7.0053 3.76116L7.16678 3.65827L7.33056 3.55714L7.49667 3.45777L7.66514 3.36015L7.83602 3.26426L8.00934 3.17011L8.18512 3.07768L8.36343 2.98697L8.54429 2.89797L8.72775 2.81067L8.91386 2.72506L9.10266 2.64114L9.29421 2.55891L9.48856 2.47835L9.68577 2.39946L9.88589 2.32223L10.089 2.24667L10.2952 2.17276L10.5044 2.10049L10.7169 2.02987L10.9326 1.96089L11.1517 1.89354L11.3743 1.82782L11.6004 1.76373L11.8301 1.70126L12.0636 1.64041L12.301 1.58117L12.5424 1.52354L12.7879 1.46752L13.0377 1.4131L13.2919 1.36028L13.5507 1.30906L13.8143 1.25943L14.0829 1.21139L14.3567 1.16494L14.6359 1.12008L14.9208 1.07679L15.2116 1.03509L15.5087 0.99497L15.8124 0.956423L16.1231 0.91945L16.4412 0.884049L16.7671 0.850218L17.1014 0.817955L17.4446 0.787258L17.7975 0.758127L18.1607 0.730558L18.5352 0.704551L18.9219 0.680105L19.3221 0.657218L19.737 0.635889L20.1684 0.616116L20.6183 0.5979L21.0892 0.581239L21.5841 0.566131L22.1069 0.552577L22.663 0.540576L23.2594 0.530127L23.9061 0.521229L24.6185 0.513882L25.4214 0.508086L26.3617 0.503841L27.5496 0.501145L29.4848 0.5L33.7045 0.500405L35.1138 0.502359L36.1508 0.505864L37.0113 0.510919L37.7629 0.517525L38.4386 0.525682L39.0576 0.53539L39.6319 0.546649L40.1699 0.559461L40.6776 0.573827L41.1595 0.589745L41.619 0.607219L42.059 0.626247L42.4816 0.646833L42.8886 0.668975L43.2816 0.692676L43.6618 0.717937L44.0303 0.74476L44.388 0.773144L44.7357 0.803093L45.0742 0.834607L45.4041 0.867689L45.7258 0.90234L46.04 0.938561L46.347 0.976356L46.6472 1.01573L46.941 1.05667L47.2287 1.0992L47.5106 1.14331L47.7869 1.189L48.058 1.23628L48.3239 1.28515L48.585 1.33561L48.8414 1.38766L49.0933 1.44132L49.3408 1.49657L49.5842 1.55343L49.8234 1.6119L50.0588 1.67198L50.2903 1.73368L50.5181 1.797L50.7423 1.86194L50.9631 1.92851L51.1804 1.99671L51.3944 2.06654L51.6052 2.13802L51.8129 2.21115L52.0174 2.28592L52.219 2.36235L52.4176 2.44045L52.6133 2.52021L52.8061 2.60164L52.9963 2.68476L53.1836 2.76955L53.3684 2.85605L53.5505 2.94423L53.73 3.03413L53.907 3.12574L54.0815 3.21906L54.2535 3.31412L54.4231 3.41091L54.5903 3.50944L54.7552 3.60973L54.9178 3.71178L55.0781 3.8156L55.2361 3.9212L55.3919 4.02859L55.5455 4.13778L55.697 4.24878L55.8462 4.3616L55.9934 4.47626L56.1384 4.59277L56.2814 4.71113L56.4223 4.83136L56.5612 4.95347L56.698 5.07749L56.8328 5.20341L56.9657 5.33127L57.0966 5.46106L57.2255 5.59281L57.3525 5.72654L57.4776 5.86227L57.6008 6L57.722 6.13976L57.8414 6.28158L57.959 6.42546L58.0747 6.57144L58.1885 6.71953L58.3005 6.86975L58.4107 7.02214L58.5191 7.17671L58.6257 7.3335L58.7305 7.49252L58.8336 7.65382L58.9348 7.81741L59.0343 7.98333L59.1321 8.15162L59.2281 8.3223L59.3224 8.49542L59.415 8.67101L59.5058 8.84912L59.595 9.02977L59.6824 9.21302L59.7681 9.39892L59.8522 9.5875L59.9346 9.77883L60.0153 9.97296L60.0943 10.1699L60.1716 10.3698L60.2473 10.5727L60.3214 10.7786L60.3938 10.9876L60.4645 11.1998L60.5336 11.4153L60.6011 11.6341L60.667 11.8564L60.7312 12.0822L60.7938 12.3117L60.8548 12.5449L60.9141 12.7819L60.9719 13.023L61.028 13.2682L61.0826 13.5176L61.1355 13.7715L61.1869 14.0299L61.2366 14.2931L61.2848 14.5613L61.3314 14.8347L61.3764 15.1134L61.4198 15.3979L61.4616 15.6882L61.5019 15.9848L61.5405 16.288L61.5776 16.5981L61.6131 16.9156L61.6471 17.2408L61.6795 17.5744L61.7103 17.9169L61.7396 18.269L61.7673 18.6314L61.7934 19.0049L61.818 19.3906L61.841 19.7897L61.8624 20.2034L61.8823 20.6334L61.9007 21.0818L61.9174 21.5508L61.9327 22.0437L61.9464 22.5641L61.9585 23.1174L61.9691 23.7102L61.9781 24.3525L61.9855 25.0588L61.9915 25.8533L61.9958 26.7799L61.9986 27.9404L61.9999 29.7504L62 31.5Z" fill="#EAECFF"/>
<path d="M54.0697 43.7561C53.933 42.1701 52.6045 40.953 51.0126 40.9553C49.6173 40.9605 48.4011 41.9063 48.0522 43.2572H41.8048C41.381 43.2572 41.0375 42.9137 41.0375 42.49V39.4207H44.3538C45.912 39.4195 47.1748 38.1566 47.1761 36.5985V10.0148C47.1744 8.45692 45.9117 7.19462 44.3538 7.19336H17.9872C16.3097 7.19507 14.9503 8.55448 14.9486 10.2319V36.5985C14.9499 38.1566 16.2127 39.4194 17.7709 39.4207H21.0872V42.49C21.0872 42.9138 20.7437 43.2572 20.3199 43.2572H14.0724C13.686 41.7607 12.2471 40.785 10.7138 40.9798C9.18052 41.1745 8.03125 42.4791 8.03125 44.0246C8.03125 45.5702 9.18052 46.8746 10.7137 47.0694C12.247 47.2642 13.6859 46.2885 14.0723 44.7919H20.3197C21.591 44.7919 22.6217 43.7612 22.6217 42.49V39.4207H25.6909V48.6285C25.6909 49.0523 25.3474 49.3958 24.9236 49.3958H23.2801C22.8937 47.8993 21.4548 46.9236 19.9216 47.1183C18.3883 47.3131 17.2391 48.6176 17.2391 50.1631C17.2391 51.7087 18.3883 53.0131 19.9216 53.2079C21.4548 53.4027 22.8937 52.4269 23.2801 50.9304H24.9236C26.1949 50.9304 27.2256 49.8997 27.2256 48.6284V39.4206H34.8987V48.6284C34.8987 49.8997 35.9294 50.9304 37.2007 50.9304H38.8443C39.2306 52.4269 40.6695 53.4027 42.2028 53.2079C43.736 53.0131 44.8853 51.7087 44.8853 50.1631C44.8853 48.6176 43.736 47.3131 42.2028 47.1183C40.6695 46.9236 39.2306 47.8993 38.8443 49.3958H37.2007C36.7769 49.3958 36.4334 49.0523 36.4334 48.6285V39.4207H39.5026V42.49C39.5026 43.7612 40.5332 44.7919 41.8046 44.7919H48.0521C48.4536 46.3323 49.9678 47.3088 51.5367 47.0387C53.1057 46.7687 54.2064 45.3422 54.0697 43.7561ZM11.112 45.5593C10.2644 45.5593 9.57734 44.8722 9.57734 44.0246C9.57734 43.177 10.2644 42.49 11.112 42.49C11.9596 42.49 12.6467 43.177 12.6467 44.0246C12.6467 44.8722 11.9596 45.5593 11.112 45.5593ZM20.3198 51.6978C19.4722 51.6978 18.7852 51.0107 18.7852 50.1631C18.7852 49.3155 19.4722 48.6284 20.3198 48.6284C21.1674 48.6284 21.8545 49.3155 21.8545 50.1631C21.8545 51.0107 21.1674 51.6978 20.3198 51.6978ZM41.8048 48.6285C42.6524 48.6285 43.3394 49.3156 43.3394 50.1632C43.3394 51.0108 42.6524 51.6979 41.8048 51.6979C40.9572 51.6979 40.2701 51.0108 40.2701 50.1632C40.2701 49.3156 40.9572 48.6285 41.8048 48.6285ZM17.7708 37.8861C17.06 37.8852 16.484 37.3092 16.4832 36.5985V10.2319C16.484 9.40171 17.1569 8.72883 17.9871 8.72803H44.3537C45.0643 8.72847 45.6404 9.30423 45.6412 10.0148V36.5985C45.6404 37.3092 45.0644 37.8852 44.3537 37.8861H17.7708ZM51.0126 45.5593C50.165 45.5593 49.4779 44.8722 49.4779 44.0246C49.4779 43.177 50.165 42.49 51.0126 42.49C51.8602 42.49 52.5473 43.177 52.5473 44.0246C52.5473 44.8722 51.8601 45.5593 51.0126 45.5593Z" fill="#717FFF"/>
<path d="M33.3618 21.7728V15.6343C33.3618 14.7867 32.6747 14.0996 31.8271 14.0996H30.2925C29.4449 14.0996 28.7578 14.7867 28.7578 15.6343V21.7728C28.7578 22.6204 29.4449 23.3075 30.2925 23.3075H31.8271C32.6747 23.3074 33.3618 22.6203 33.3618 21.7728ZM31.8271 21.7728H30.2925V15.6343H31.8271V21.7728Z" fill="#717FFF"/>
<path d="M27.9979 26.377H23.394C22.5465 26.377 21.8594 27.064 21.8594 27.9116V29.4463C21.8594 30.2939 22.5465 30.9809 23.394 30.9809H27.9979C28.8455 30.9809 29.5326 30.2939 29.5326 29.4463V27.9116C29.5325 27.064 28.8454 26.377 27.9979 26.377ZM27.9979 29.4463H23.394V27.9116H27.9979V29.4463Z" fill="#717FFF"/>
<path d="M38.7323 26.377H34.1284C33.2808 26.377 32.5938 27.064 32.5938 27.9116V29.4463C32.5938 30.2939 33.2808 30.9809 34.1284 30.9809H38.7323C39.5799 30.9809 40.267 30.2939 40.267 29.4463V27.9116C40.267 27.064 39.5799 26.377 38.7323 26.377ZM38.7323 29.4463H34.1284V27.9116H38.7323V29.4463Z" fill="#717FFF"/>
<path d="M18.5619 22.7619C18.5253 22.7291 18.4868 22.6984 18.4468 22.6699C18.4041 22.6406 18.3577 22.6174 18.3087 22.6008C18.2628 22.5772 18.2132 22.5614 18.1621 22.554C18.0639 22.5317 17.9619 22.5317 17.8637 22.554C17.8156 22.5626 17.769 22.5783 17.7256 22.6008C17.6764 22.6174 17.6296 22.6406 17.5866 22.6699C17.5468 22.6984 17.5087 22.7291 17.4724 22.7619C17.4045 22.8364 17.35 22.9221 17.3112 23.0152C17.2682 23.1062 17.2472 23.2061 17.2498 23.3068C17.2485 23.4065 17.2664 23.5055 17.3028 23.5984C17.348 23.6898 17.405 23.775 17.4724 23.8516C17.5472 23.919 17.6328 23.9735 17.7256 24.0127C17.9113 24.0946 18.1229 24.0946 18.3087 24.0127C18.4014 23.9733 18.4869 23.9189 18.5619 23.8516C18.6294 23.7769 18.6839 23.6913 18.7231 23.5984C18.8049 23.4126 18.8049 23.201 18.7231 23.0152C18.6843 22.9221 18.6298 22.8365 18.5619 22.7619Z" fill="#717FFF"/>
<path d="M44.6562 23.8514C44.7237 23.7767 44.7782 23.6911 44.8173 23.5982C44.8992 23.4124 44.8992 23.2008 44.8173 23.015C44.7786 22.922 44.7241 22.8364 44.6562 22.7618C44.6196 22.729 44.5811 22.6982 44.5411 22.6697C44.4984 22.6405 44.452 22.6173 44.403 22.6007C44.357 22.5771 44.3075 22.5613 44.2564 22.5538C44.1581 22.5315 44.0561 22.5315 43.9578 22.5538C43.9097 22.5625 43.8632 22.5782 43.8197 22.6007C43.7705 22.6173 43.7238 22.6405 43.6808 22.6697C43.641 22.6982 43.6028 22.729 43.5665 22.7618C43.4986 22.8363 43.4441 22.922 43.4054 23.015C43.3624 23.1061 43.3414 23.2059 43.344 23.3066C43.3426 23.4064 43.3606 23.5054 43.3969 23.5983C43.4422 23.6897 43.4992 23.7749 43.5665 23.8515C43.6413 23.9189 43.7269 23.9734 43.8197 24.0126C44.0055 24.0945 44.2171 24.0945 44.4029 24.0126C44.4957 23.9731 44.5813 23.9186 44.6562 23.8514Z" fill="#717FFF"/>
</svg>
