<svg width="62" height="63" viewBox="0 0 62 63" fill="none" xmlns="http://www.w3.org/2000/svg">
<path fill-rule="evenodd" clip-rule="evenodd" d="M62 31.5L61.9992 34.6L61.9969 35.8839L61.993 36.8689L61.9876 37.6992L61.9806 38.4304L61.9721 39.0911L61.962 39.6985L61.9504 40.2634L61.9372 40.7937L61.9225 41.2949L61.9062 41.7712L61.8883 42.2258L61.8689 42.6615L61.848 43.0802L61.8255 43.4837L61.8014 43.8735L61.7758 44.2508L61.7486 44.6167L61.7198 44.9719L61.6895 45.3174L61.6576 45.6538L61.6241 45.9817L61.5891 46.3016L61.5525 46.614L61.5143 46.9193L61.4746 47.218L61.4333 47.5103L61.3904 47.7966L61.3459 48.0771L61.2998 48.3521L61.2521 48.6219L61.2029 48.8867L61.1521 49.1467L61.0996 49.402L61.0456 49.6528L60.9899 49.8993L60.9327 50.1417L60.8738 50.38L60.8134 50.6144L60.7513 50.845L60.6876 51.072L60.6223 51.2954L60.5553 51.5153L60.4867 51.7318L60.4165 51.9451L60.3446 52.1551L60.2711 52.362L60.1959 52.5658L60.1191 52.7667L60.0406 52.9646L59.9604 53.1596L59.8786 53.3518L59.7951 53.5413L59.7099 53.728L59.623 53.9121L59.5344 54.0936L59.4441 54.2725L59.3521 54.4489L59.2583 54.6228L59.1629 54.7942L59.0657 54.9633L58.9667 55.13L58.866 55.2943L58.7635 55.4563L58.6593 55.6161L58.5533 55.7735L58.4454 55.9288L58.3358 56.0819L58.2244 56.2328L58.1111 56.3816L57.996 56.5282L57.8791 56.6728L57.7603 56.8152L57.6396 56.9557L57.517 57.094L57.3926 57.2304L57.2662 57.3648L57.1379 57.4971L57.0076 57.6276L56.8754 57.756L56.7412 57.8826L56.605 58.0072L56.4668 58.1299L56.3265 58.2507L56.1842 58.3697L56.0398 58.4868L55.8933 58.602L55.7447 58.7154L55.594 58.827L55.4411 58.9368L55.286 59.0448L55.1287 59.1509L54.9691 59.2553L54.8073 59.3579L54.6431 59.4588L54.4766 59.5579L54.3078 59.6552L54.1365 59.7508L53.9628 59.8447L53.7866 59.9368L53.6079 60.0273L53.4267 60.116L53.2428 60.203L53.0562 60.2884L52.867 60.372L52.675 60.454L52.4802 60.5343L52.2825 60.6129L52.0819 60.6899L51.8784 60.7652L51.6717 60.8388L51.4619 60.9108L51.2489 60.9812L51.0327 61.0499L50.813 61.117L50.5899 61.1825L50.3633 61.2463L50.1329 61.3085L49.8988 61.3691L49.6608 61.4281L49.4188 61.4854L49.1726 61.5412L48.9221 61.5954L48.6672 61.6479L48.4076 61.6989L48.1432 61.7483L47.8738 61.7961L47.5992 61.8423L47.3191 61.8869L47.0333 61.9299L46.7415 61.9714L46.4433 62.0112L46.1385 62.0495L45.8267 62.0863L45.5074 62.1214L45.1802 62.155L44.8445 62.187L44.4998 62.2174L44.1453 62.2463L43.7804 62.2737L43.404 62.2994L43.0153 62.3236L42.6129 62.3462L42.1954 62.3673L41.7612 62.3868L41.3081 62.4048L40.8337 62.4212L40.3346 62.4361L39.8069 62.4494L39.2449 62.4612L38.6413 62.4714L37.9853 62.48L37.2605 62.4871L36.4397 62.4927L35.4703 62.4967L34.221 62.4991L31.8748 62.5L28.026 62.4993L26.7042 62.4971L25.7027 62.4934L24.8628 62.4881L24.125 62.4812L23.4593 62.4728L22.8482 62.4629L22.2802 62.4514L21.7474 62.4383L21.244 62.4237L20.7659 62.4075L20.3096 62.3898L19.8726 62.3705L19.4526 62.3497L19.0479 62.3273L18.657 62.3034L18.2787 62.2779L17.912 62.2508L17.556 62.2222L17.2097 62.192L16.8727 62.1602L16.5441 62.1269L16.2236 62.092L15.9106 62.0555L15.6047 62.0174L15.3056 61.9778L15.0128 61.9366L14.726 61.8938L14.445 61.8495L14.1695 61.8035L13.8993 61.756L13.6342 61.7069L13.3738 61.6562L13.1182 61.6039L12.867 61.5499L12.6201 61.4944L12.3774 61.4373L12.1388 61.3786L11.9041 61.3183L11.6732 61.2563L11.4459 61.1927L11.2222 61.1275L11.0021 61.0607L10.7853 60.9922L10.5718 60.9221L10.3615 60.8504L10.1543 60.777L9.95026 60.702L9.74919 60.6253L9.55106 60.5469L9.35581 60.4669L9.16337 60.3852L8.9737 60.3018L8.78674 60.2167L8.60244 60.13L8.42076 60.0415L8.24164 59.9514L8.06506 59.8595L7.89096 59.7659L7.71931 59.6705L7.55007 59.5735L7.38321 59.4747L7.2187 59.3741L7.05649 59.2718L6.89656 59.1677L6.73889 59.0618L6.58344 58.9541L6.43019 58.8446L6.2791 58.7333L6.13017 58.6202L5.98335 58.5053L5.83864 58.3885L5.69601 58.2698L5.55543 58.1493L5.41689 58.0269L5.28037 57.9025L5.14585 57.7763L5.01331 57.6482L4.88273 57.518L4.75411 57.386L4.62742 57.2519L4.50265 57.1159L4.37978 56.9778L4.2588 56.8377L4.13969 56.6956L4.02245 56.5514L3.90706 56.4051L3.79351 56.2567L3.68178 56.1061L3.57187 55.9534L3.46377 55.7984L3.35745 55.6413L3.25293 55.4819L3.15017 55.3202L3.04919 55.1563L2.94996 54.99L2.85247 54.8213L2.75673 54.6502L2.66271 54.4767L2.57042 54.3008L2.47985 54.1222L2.39098 53.9412L2.30381 53.7575L2.21834 53.5712L2.13456 53.3822L2.05246 53.1904L1.97203 52.9958L1.89327 52.7984L1.81618 52.598L1.74075 52.3947L1.66696 52.1883L1.59483 51.9788L1.52434 51.766L1.45549 51.55L1.38827 51.3307L1.32268 51.1078L1.25872 50.8814L1.19638 50.6514L1.13566 50.4176L1.07655 50.1799L1.01904 49.9382L0.96315 49.6924L0.908858 49.4422L0.856166 49.1876L0.80507 48.9284L0.755568 48.6644L0.707657 48.3955L0.661333 48.1213L0.616595 47.8416L0.573439 47.5563L0.531864 47.2649L0.491867 46.9673L0.453446 46.6631L0.416598 46.3518L0.381322 46.0331L0.347616 45.7066L0.315478 45.3716L0.284906 45.0276L0.255898 44.6739L0.228454 44.3099L0.202572 43.9344L0.17825 43.5467L0.155487 43.1454L0.134282 42.7292L0.114633 42.2964L0.0965408 41.8449L0.0800031 41.3723L0.0650196 40.8754L0.0515893 40.35L0.0397115 39.7911L0.0293858 39.1911L0.0206116 38.5398L0.0133884 37.8213L0.00771591 37.0096L0.00359379 36.0551L0.00102187 34.8377L0 32.7371L0.00052814 28.6576L0.00260632 27.2942L0.00623463 26.2754L0.0114133 25.4254L0.0181425 24.6808L0.0264226 24.0101L0.0362541 23.3951L0.0476374 22.824L0.060573 22.2886L0.0750618 21.7831L0.0911043 21.3031L0.108701 20.8452L0.127854 20.4067L0.148563 19.9854L0.17083 19.5795L0.194655 19.1876L0.220041 18.8084L0.246987 18.4408L0.275496 18.0839L0.30557 17.7369L0.337209 17.3992L0.370415 17.07L0.405191 16.7488L0.441538 16.4353L0.479458 16.1288L0.518953 15.8291L0.560025 15.5358L0.602677 15.2486L0.64691 14.9672L0.692729 14.6913L0.740134 14.4206L0.789129 14.1551L0.839717 13.8944L0.8919 13.6383L0.945682 13.3868L1.00107 13.1396L1.05806 12.8966L1.11665 12.6577L1.17686 12.4226L1.23869 12.1914L1.30213 11.9639L1.3672 11.7399L1.4339 11.5194L1.50223 11.3024L1.5722 11.0886L1.64381 10.8781L1.71706 10.6707L1.79197 10.4664L1.86854 10.2651L1.94676 10.0667L2.02666 9.87123L2.10822 9.67857L2.19147 9.48868L2.2764 9.30151L2.36303 9.117L2.45135 8.93511L2.54138 8.75579L2.63313 8.57901L2.72659 8.40471L2.82179 8.23287L2.91871 8.06344L3.01739 7.89639L3.11782 7.73169L3.22001 7.5693L3.32397 7.4092L3.42971 7.25134L3.53724 7.09572L3.64658 6.94229L3.75772 6.79103L3.87069 6.64193L3.98549 6.49495L4.10215 6.35007L4.22065 6.20727L4.34104 6.06653L4.4633 5.92782L4.58747 5.79114L4.71355 5.65646L4.84155 5.52377L4.9715 5.39304L5.10341 5.26426L5.2373 5.13741L5.37318 5.01249L5.51108 4.88947L5.651 4.76834L5.79298 4.64909L5.93703 4.5317L6.08317 4.41616L6.23143 4.30246L6.38183 4.19059L6.53439 4.08053L6.68914 3.97229L6.8461 3.86583L7.0053 3.76116L7.16678 3.65827L7.33056 3.55714L7.49667 3.45777L7.66514 3.36015L7.83602 3.26426L8.00934 3.17011L8.18512 3.07768L8.36343 2.98697L8.54429 2.89797L8.72775 2.81067L8.91386 2.72506L9.10266 2.64114L9.29421 2.55891L9.48856 2.47835L9.68577 2.39946L9.88589 2.32223L10.089 2.24667L10.2952 2.17276L10.5044 2.10049L10.7169 2.02987L10.9326 1.96089L11.1517 1.89354L11.3743 1.82782L11.6004 1.76373L11.8301 1.70126L12.0636 1.64041L12.301 1.58117L12.5424 1.52354L12.7879 1.46752L13.0377 1.4131L13.2919 1.36028L13.5507 1.30906L13.8143 1.25943L14.0829 1.21139L14.3567 1.16494L14.6359 1.12008L14.9208 1.07679L15.2116 1.03509L15.5087 0.99497L15.8124 0.956423L16.1231 0.91945L16.4412 0.884049L16.7671 0.850218L17.1014 0.817955L17.4446 0.787258L17.7975 0.758127L18.1607 0.730558L18.5352 0.704551L18.9219 0.680105L19.3221 0.657218L19.737 0.635889L20.1684 0.616116L20.6183 0.5979L21.0892 0.581239L21.5841 0.566131L22.1069 0.552577L22.663 0.540576L23.2594 0.530127L23.9061 0.521229L24.6185 0.513882L25.4214 0.508086L26.3617 0.503841L27.5496 0.501145L29.4848 0.5L33.7045 0.500405L35.1138 0.502359L36.1508 0.505864L37.0113 0.510919L37.7629 0.517525L38.4386 0.525682L39.0576 0.53539L39.6319 0.546649L40.1699 0.559461L40.6776 0.573827L41.1595 0.589745L41.619 0.607219L42.059 0.626247L42.4816 0.646833L42.8886 0.668975L43.2816 0.692676L43.6618 0.717937L44.0303 0.74476L44.388 0.773144L44.7357 0.803093L45.0742 0.834607L45.4041 0.867689L45.7258 0.90234L46.04 0.938561L46.347 0.976356L46.6472 1.01573L46.941 1.05667L47.2287 1.0992L47.5106 1.14331L47.7869 1.189L48.058 1.23628L48.3239 1.28515L48.585 1.33561L48.8414 1.38766L49.0933 1.44132L49.3408 1.49657L49.5842 1.55343L49.8234 1.6119L50.0588 1.67198L50.2903 1.73368L50.5181 1.797L50.7423 1.86194L50.9631 1.92851L51.1804 1.99671L51.3944 2.06654L51.6052 2.13802L51.8129 2.21115L52.0174 2.28592L52.219 2.36235L52.4176 2.44045L52.6133 2.52021L52.8061 2.60164L52.9963 2.68476L53.1836 2.76955L53.3684 2.85605L53.5505 2.94423L53.73 3.03413L53.907 3.12574L54.0815 3.21906L54.2535 3.31412L54.4231 3.41091L54.5903 3.50944L54.7552 3.60973L54.9178 3.71178L55.0781 3.8156L55.2361 3.9212L55.3919 4.02859L55.5455 4.13778L55.697 4.24878L55.8462 4.3616L55.9934 4.47626L56.1384 4.59277L56.2814 4.71113L56.4223 4.83136L56.5612 4.95347L56.698 5.07749L56.8328 5.20341L56.9657 5.33127L57.0966 5.46106L57.2255 5.59281L57.3525 5.72654L57.4776 5.86227L57.6008 6L57.722 6.13976L57.8414 6.28158L57.959 6.42546L58.0747 6.57144L58.1885 6.71953L58.3005 6.86975L58.4107 7.02214L58.5191 7.17671L58.6257 7.3335L58.7305 7.49252L58.8336 7.65382L58.9348 7.81741L59.0343 7.98333L59.1321 8.15162L59.2281 8.3223L59.3224 8.49542L59.415 8.67101L59.5058 8.84912L59.595 9.02977L59.6824 9.21302L59.7681 9.39892L59.8522 9.5875L59.9346 9.77883L60.0153 9.97296L60.0943 10.1699L60.1716 10.3698L60.2473 10.5727L60.3214 10.7786L60.3938 10.9876L60.4645 11.1998L60.5336 11.4153L60.6011 11.6341L60.667 11.8564L60.7312 12.0822L60.7938 12.3117L60.8548 12.5449L60.9141 12.7819L60.9719 13.023L61.028 13.2682L61.0826 13.5176L61.1355 13.7715L61.1869 14.0299L61.2366 14.2931L61.2848 14.5613L61.3314 14.8347L61.3764 15.1134L61.4198 15.3979L61.4616 15.6882L61.5019 15.9848L61.5405 16.288L61.5776 16.5981L61.6131 16.9156L61.6471 17.2408L61.6795 17.5744L61.7103 17.9169L61.7396 18.269L61.7673 18.6314L61.7934 19.0049L61.818 19.3906L61.841 19.7897L61.8624 20.2034L61.8823 20.6334L61.9007 21.0818L61.9174 21.5508L61.9327 22.0437L61.9464 22.5641L61.9585 23.1174L61.9691 23.7102L61.9781 24.3525L61.9855 25.0588L61.9915 25.8533L61.9958 26.7799L61.9986 27.9404L61.9999 29.7504L62 31.5Z" fill="#EAECFF"/>
<path d="M36.1869 37.3462H36.1852C35.8629 37.3463 35.6017 37.6078 35.6019 37.9301C35.602 38.2525 35.8635 38.5136 36.1858 38.5135H36.187C36.5089 38.5138 36.7699 38.7745 36.7706 39.0965C36.7709 39.4186 37.0321 39.6795 37.3542 39.6796H37.3548C37.6772 39.6793 37.9382 39.4177 37.9379 39.0954C37.9358 38.1294 37.1528 37.3473 36.1869 37.3462Z" fill="#717FFF"/>
<path d="M29.1757 39.6811L30.343 39.68C30.6653 39.6798 30.9265 39.4184 30.9263 39.096C30.9262 38.7737 30.6647 38.5126 30.3424 38.5127H30.3418L29.1745 38.5139C28.8521 38.514 28.591 38.7755 28.5911 39.0978C28.5913 39.4202 28.8527 39.6813 29.1751 39.6811H29.1757Z" fill="#717FFF"/>
<path d="M29.4031 37.2564L30.5002 37.6545C30.6965 37.7266 30.9162 37.6883 31.0765 37.554C31.2367 37.4197 31.3128 37.21 31.2761 37.0042C31.2394 36.7985 31.0954 36.628 30.8986 36.5574L29.8014 36.1593C29.4988 36.0506 29.1652 36.207 29.0555 36.5093C28.9457 36.8116 29.1012 37.1457 29.4031 37.2564Z" fill="#717FFF"/>
<path d="M31.0753 40.6508C30.9155 40.5169 30.6963 40.4784 30.5004 40.5499L29.4039 40.95C29.208 41.0215 29.0651 41.1921 29.0291 41.3974C28.993 41.6028 29.0693 41.8118 29.2291 41.9457C29.389 42.0796 29.6081 42.118 29.804 42.0466L30.9005 41.6465C31.0964 41.575 31.2393 41.4044 31.2753 41.1991C31.3114 40.9937 31.2351 40.7847 31.0753 40.6508Z" fill="#717FFF"/>
<path d="M43.1805 38.5107H43.1799L42.0126 38.5119C41.6919 38.5143 41.4332 38.7751 41.4333 39.0958C41.4335 39.4165 41.6924 39.677 42.0131 39.6791H42.0137L43.181 39.678C43.5033 39.6778 43.7644 39.4164 43.7643 39.094C43.7642 38.7717 43.5028 38.5106 43.1805 38.5107Z" fill="#717FFF"/>
<path d="M41.6714 37.6796C41.7397 37.6795 41.8074 37.6674 41.8715 37.644L42.9678 37.2439C43.1637 37.1724 43.3065 37.0018 43.3426 36.7965C43.3786 36.5912 43.3024 36.3821 43.1425 36.2482C42.9827 36.1143 42.7636 36.0758 42.5677 36.1473L41.4714 36.5474C41.2054 36.6445 41.0475 36.9185 41.0967 37.1974C41.146 37.4762 41.3883 37.6796 41.6714 37.6796Z" fill="#717FFF"/>
<path d="M42.9661 40.9387L41.869 40.5403C41.5663 40.4315 41.2327 40.588 41.123 40.8903C41.0132 41.1926 41.1687 41.5267 41.4706 41.6375L42.5677 42.0359C42.8702 42.1441 43.2034 41.9876 43.313 41.6856C43.4227 41.3835 43.2676 41.0497 42.9661 40.9387Z" fill="#717FFF"/>
<path d="M26.0578 16.3395C23.8796 16.4436 22.1672 18.2399 22.1672 20.4206C22.1672 20.7429 22.4284 21.0042 22.7508 21.0042C23.0731 21.0042 23.3344 20.7428 23.3344 20.4206C23.333 19.5411 23.7296 18.7084 24.413 18.155C25.1068 17.596 26.0161 17.3806 26.8869 17.5688C27.9967 17.8096 28.8635 18.6764 29.1044 19.7862C29.2793 20.5792 29.1165 21.4093 28.655 22.0775C28.1935 22.7458 27.4748 23.1919 26.6712 23.3091C26.0984 23.3922 25.6724 23.8816 25.669 24.4603V25.0896C25.669 25.4119 25.9302 25.6732 26.2526 25.6732C26.5749 25.6732 26.8362 25.4119 26.8362 25.0896L26.8365 24.4643C28.9947 24.1528 30.5281 22.2013 30.32 20.0306C30.112 17.8601 28.236 16.2353 26.0578 16.3395Z" fill="#717FFF"/>
<path d="M26.6667 27.0085C26.6099 26.9569 26.5448 26.9153 26.474 26.8856C26.3319 26.8275 26.1726 26.8275 26.0304 26.8856C25.959 26.9139 25.8936 26.9556 25.838 27.0085C25.7864 27.0651 25.7448 27.1302 25.7151 27.2009C25.6853 27.2711 25.6695 27.3466 25.6687 27.4229C25.6696 27.462 25.6736 27.5009 25.6804 27.5394C25.6866 27.576 25.6984 27.6114 25.7151 27.6445C25.7279 27.6818 25.7457 27.7172 25.7679 27.7497C25.7912 27.7788 25.8146 27.8079 25.838 27.8372C25.9499 27.9438 26.0979 28.0042 26.2523 28.0065C26.3288 28.0085 26.4048 27.9925 26.474 27.9598C26.5447 27.9301 26.6099 27.8886 26.6667 27.8372C26.69 27.8079 26.7134 27.7788 26.7365 27.7497C26.7587 27.7172 26.7764 27.6818 26.7893 27.6445C26.806 27.6114 26.8179 27.5759 26.8244 27.5394C26.8311 27.5009 26.835 27.4619 26.8361 27.4229C26.8352 27.3466 26.8193 27.2711 26.7893 27.2009C26.7595 27.1303 26.7181 27.0652 26.6667 27.0085Z" fill="#717FFF"/>
<path d="M39.6799 28.0072V16.3345C39.6784 15.0458 38.6341 14.0015 37.3453 14H16.3345C15.0458 14.0015 14.0015 15.0458 14 16.3345V28.0072C14.0015 29.2959 15.0458 30.3403 16.3345 30.3417H16.9181V33.8423C16.9177 34.3147 17.202 34.7406 17.6384 34.9214C18.0747 35.1022 18.577 35.002 18.9107 34.6677C18.9247 34.6539 18.9378 34.6394 18.95 34.624L22.4475 30.3417H37.3452C38.6341 30.3403 39.6784 29.2959 39.6799 28.0072ZM22.1709 29.1745C22.161 29.1745 22.1529 29.1796 22.1432 29.1801C22.0682 29.1914 21.9943 29.2096 21.9227 29.2345C21.8923 29.2512 21.8635 29.2706 21.8366 29.2925C21.802 29.3152 21.77 29.3414 21.741 29.3709C21.7345 29.3782 21.7253 29.3813 21.7189 29.389L18.0855 33.8375V29.7581C18.0855 29.4357 17.8242 29.1745 17.5019 29.1745H16.3345C15.6901 29.1739 15.1679 28.6516 15.1672 28.0072V16.3345C15.1678 15.6901 15.6901 15.1679 16.3345 15.1672H37.3453C37.9897 15.1678 38.5119 15.6901 38.5126 16.3345V28.0072C38.512 28.6516 37.9897 29.1738 37.3453 29.1745H22.1709Z" fill="#717FFF"/>
<path d="M46.6821 32.676H46.0985V29.1754C46.0985 28.7033 45.8141 28.2777 45.3779 28.097C44.9418 27.9164 44.4398 28.0163 44.1059 28.35C44.0919 28.3638 44.0788 28.3783 44.0666 28.3937L40.5691 32.676H25.6714C24.3827 32.6775 23.3383 33.7218 23.3369 35.0105V46.6832C23.3384 47.9719 24.3827 49.0163 25.6714 49.0177H46.6821C47.9708 49.0162 49.0152 47.9719 49.0167 46.6832V35.0105C49.0152 33.7218 47.9708 32.6774 46.6821 32.676ZM47.8494 46.6832C47.8488 47.3276 47.3265 47.8498 46.6821 47.8505H25.6713C25.0269 47.8499 24.5047 47.3276 24.504 46.6832V35.0105C24.5046 34.3661 25.0269 33.8439 25.6713 33.8432H40.8458C40.9274 33.8427 41.0081 33.8249 41.0823 33.791C41.0997 33.7805 41.1165 33.7692 41.1326 33.757C41.1864 33.7275 41.2351 33.6896 41.2769 33.6447C41.283 33.638 41.2919 33.6357 41.2977 33.6286L44.9312 29.1801V33.2596C44.9312 33.5819 45.1925 33.8432 45.5148 33.8432H46.6821C47.3265 33.8438 47.8487 34.3661 47.8494 35.0105V46.6832Z" fill="#717FFF"/>
<path d="M36.666 35.0401C34.854 34.8199 33.1159 35.8288 32.4084 37.5114C31.7009 39.1941 32.196 41.1419 33.621 42.2826C33.7589 42.3911 33.8396 42.5568 33.8401 42.7323V43.182C33.8414 43.5968 34.0635 43.9795 34.423 44.1865L34.4237 44.9335C34.4257 45.4956 34.6965 46.0229 35.1524 46.3518C35.4492 46.5673 35.8067 46.6832 36.1735 46.6829C36.3687 46.6826 36.5627 46.651 36.748 46.5892C37.4701 46.3315 37.9453 45.6395 37.9263 44.873L37.9258 44.1867C38.2855 43.9798 38.5078 43.597 38.5091 43.182V42.734C38.5128 42.552 38.5989 42.3816 38.7431 42.2706C39.8879 41.3527 40.4482 39.8884 40.2085 38.4408C39.9037 36.6517 38.466 35.2717 36.666 35.0401ZM36.3812 45.4811C36.198 45.547 35.9941 45.5187 35.8358 45.4053C35.6831 45.296 35.592 45.1201 35.591 44.9322L35.5904 44.3492H36.7588L36.7591 44.8741C36.7712 45.1352 36.6209 45.3767 36.3812 45.4811ZM38.0099 41.3624C37.5905 41.6944 37.3448 42.1991 37.3419 42.734V43.18H37.3413L35.0073 43.182V42.7323C35.0077 42.2019 34.7655 41.7005 34.3499 41.3709C33.3851 40.5965 33.0138 39.2978 33.4232 38.1303C33.8326 36.9629 34.9338 36.1806 36.1709 36.1784C36.2908 36.1784 36.4106 36.1853 36.5297 36.1994C37.8127 36.3639 38.8376 37.3471 39.0555 38.622C39.2277 39.6572 38.828 40.7049 38.0099 41.3624Z" fill="#717FFF"/>
</svg>
