<svg width="32" height="33" viewBox="0 0 32 33" fill="none" xmlns="http://www.w3.org/2000/svg">
<circle cx="15.6865" cy="16.7959" r="14.6036" stroke="white" stroke-width="1.65984"/>
<path d="M29.6696 17.1411L29.6696 15.5267C23.3363 26.1645 5.3549 24.9507 3.08938 10.5428L2.36444 12.1739C6.98599 29.5722 26.4982 24.0279 29.6696 17.1411Z" fill="white" stroke="white" stroke-width="0.737705"/>
<path d="M15.6247 30.6369L18.0742 30.9851C4.80123 26.0994 5.26465 7.28226 19.9445 3.47638L18.0415 2.93268C0.280704 10.3632 7.92218 28.1979 15.6247 30.6369Z" fill="white" stroke="white" stroke-width="0.737705"/>
<path d="M5.11534 8.08084L4.02796 9.34944C17.4393 6.72155 25.3352 21.6481 18.6295 30.8004L20.4293 29.6475C27.3156 15.6926 12.9082 5.72479 5.11534 8.08084Z" fill="white" stroke="white" stroke-width="0.737705"/>
<circle cx="11.1261" cy="8.9464" r="1.84426" fill="#7180FF" stroke="white" stroke-width="1.65984"/>
<circle cx="8.35265" cy="20.9327" r="1.84426" fill="#7180FF" stroke="white" stroke-width="1.65984"/>
<circle cx="22.5558" cy="22.962" r="1.84426" fill="#7180FF" stroke="white" stroke-width="1.65984"/>
</svg>
