<svg width="20" height="20" viewBox="0 0 20 20" fill="none" xmlns="http://www.w3.org/2000/svg">
<path d="M10.1826 0.5C15.3328 0.501484 19.5 4.64277 19.5 9.74316C19.4998 14.8435 15.3315 18.9844 10.1807 18.9844C8.546 18.9843 7.01151 18.5666 5.67578 17.835L5.48828 17.7324L5.28418 17.7969L0.790039 19.2236L2.24512 14.9316L2.32031 14.7109L2.19922 14.5117C1.35205 13.1204 0.86428 11.4868 0.864258 9.74219L0.875977 9.2666C1.11787 4.544 4.93395 0.75156 9.70215 0.511719L10.1826 0.5ZM10.1807 1.05371C5.35664 1.05371 1.42676 4.94849 1.42676 9.74512C1.42685 11.5532 1.98811 13.2335 2.94336 14.625L1.99512 17.4268L1.67773 18.3633L2.62012 18.0635L5.56934 17.126C6.91017 17.9539 8.49045 18.4336 10.1807 18.4336C15.0042 18.4334 18.9353 14.5396 18.9355 9.74316L18.9238 9.2959C18.6898 4.70823 14.8541 1.05389 10.1807 1.05371ZM6.87598 5.7998C6.93805 5.79981 7.00308 5.80362 7.08203 5.80859C7.15504 5.81319 7.24783 5.81934 7.33691 5.81934C7.34897 5.81934 7.36092 5.81778 7.37207 5.81738L7.41699 5.91113V5.91211C7.51705 6.14946 7.68722 6.55966 7.84082 6.92969L8.17285 7.71289C8.17386 7.71497 8.17491 7.71689 8.17578 7.71875C8.12067 7.82931 8.09977 7.87703 8.06641 7.92383L8.02246 7.97852L8.02051 7.97949C7.87074 8.15354 7.77653 8.27997 7.68555 8.37109C7.64068 8.41565 7.4946 8.55183 7.4209 8.74707C7.32864 8.99172 7.37141 9.2408 7.50195 9.46289V9.46387C7.63256 9.68782 8.04275 10.3548 8.66211 10.9775L8.94043 11.2402C9.67805 11.8926 10.3535 12.2209 10.7236 12.3838L10.9834 12.4971L10.9883 12.5C11.1416 12.5751 11.343 12.6481 11.5684 12.6201C11.814 12.5895 11.9874 12.4529 12.1055 12.3184L12.1045 12.3174C12.2297 12.1754 12.6464 11.6896 12.8545 11.3994L12.8633 11.4033L12.8662 11.4043C12.9456 11.4327 13.2655 11.5802 13.6328 11.7559L14.4531 12.1553H14.4541C14.5181 12.1873 14.5779 12.2165 14.625 12.2393C14.6417 12.2473 14.6564 12.2551 14.6699 12.2617C14.6691 12.285 14.6715 12.3116 14.6689 12.3408C14.6585 12.4607 14.6333 12.613 14.585 12.7822L14.5283 12.957C14.4866 13.0731 14.3126 13.271 14.0088 13.4658C13.7862 13.6086 13.5746 13.6982 13.4385 13.7383L13.3301 13.7617C13.1857 13.775 13.0153 13.8211 12.9814 13.8281C12.926 13.8395 12.8583 13.8491 12.7314 13.8369C12.5169 13.8163 12.1505 13.7355 11.4658 13.4951L10.6689 13.1982C8.38934 12.3073 6.94045 9.97684 6.77246 9.75586H6.77344C6.71865 9.6836 6.49431 9.38821 6.28418 8.97754C6.0702 8.55927 5.89264 8.0638 5.89258 7.58887C5.89258 6.865 6.16885 6.43061 6.39941 6.1582L6.60254 5.93555C6.70945 5.81912 6.8262 5.7998 6.87598 5.7998Z" fill="black" stroke="#207FF1"/>
</svg>
